<mxfile host="app.diagrams.net" agent="Mozilla/5.0 (X11; Linux x86_64; rv:141.0) Gecko/20100101 Firefox/141.0" version="28.0.7">
  <diagram name="第 1 页" id="XApkqAXvTrZzcp6OmfHy">
    <mxGraphModel dx="1180" dy="724" grid="1" gridSize="10" guides="1" tooltips="1" connect="1" arrows="1" fold="1" page="1" pageScale="1" pageWidth="1169" pageHeight="827" math="0" shadow="0">
      <root>
        <mxCell id="0" />
        <mxCell id="1" parent="0" />
        <mxCell id="sEXIVBVAYyvHJAa7rBJ1-1" value="0" style="rounded=0;whiteSpace=wrap;html=1;fillColor=#f5f5f5;fontColor=#333333;strokeColor=#666666;" vertex="1" parent="1">
          <mxGeometry x="359" y="107" width="20" height="20" as="geometry" />
        </mxCell>
        <mxCell id="sEXIVBVAYyvHJAa7rBJ1-2" value="1" style="rounded=0;whiteSpace=wrap;html=1;fillColor=#f5f5f5;fontColor=#333333;strokeColor=#666666;" vertex="1" parent="1">
          <mxGeometry x="379" y="107" width="20" height="20" as="geometry" />
        </mxCell>
        <mxCell id="sEXIVBVAYyvHJAa7rBJ1-3" value="2" style="rounded=0;whiteSpace=wrap;html=1;fillColor=#f5f5f5;fontColor=#333333;strokeColor=#666666;" vertex="1" parent="1">
          <mxGeometry x="399" y="107" width="20" height="20" as="geometry" />
        </mxCell>
        <mxCell id="sEXIVBVAYyvHJAa7rBJ1-4" value="3" style="rounded=0;whiteSpace=wrap;html=1;fillColor=#f5f5f5;fontColor=#333333;strokeColor=#666666;" vertex="1" parent="1">
          <mxGeometry x="419" y="107" width="20" height="20" as="geometry" />
        </mxCell>
        <mxCell id="sEXIVBVAYyvHJAa7rBJ1-11" style="rounded=0;orthogonalLoop=1;jettySize=auto;html=1;entryX=0.5;entryY=0;entryDx=0;entryDy=0;" edge="1" parent="1" source="sEXIVBVAYyvHJAa7rBJ1-5" target="sEXIVBVAYyvHJAa7rBJ1-10">
          <mxGeometry relative="1" as="geometry" />
        </mxCell>
        <mxCell id="sEXIVBVAYyvHJAa7rBJ1-5" value="moe gate" style="rounded=1;whiteSpace=wrap;html=1;" vertex="1" parent="1">
          <mxGeometry x="239" y="157" width="70" height="30" as="geometry" />
        </mxCell>
        <mxCell id="sEXIVBVAYyvHJAa7rBJ1-6" value="assign tokens to experts; assume topk_experts=2" style="text;html=1;align=center;verticalAlign=middle;resizable=0;points=[];autosize=1;strokeColor=none;fillColor=none;" vertex="1" parent="1">
          <mxGeometry x="319" y="157" width="290" height="30" as="geometry" />
        </mxCell>
        <mxCell id="sEXIVBVAYyvHJAa7rBJ1-8" value="" style="endArrow=classic;html=1;rounded=0;entryX=0.5;entryY=0;entryDx=0;entryDy=0;" edge="1" parent="1" target="sEXIVBVAYyvHJAa7rBJ1-5">
          <mxGeometry width="50" height="50" relative="1" as="geometry">
            <mxPoint x="274" y="67" as="sourcePoint" />
            <mxPoint x="269" y="57" as="targetPoint" />
          </mxGeometry>
        </mxCell>
        <mxCell id="sEXIVBVAYyvHJAa7rBJ1-28" style="edgeStyle=orthogonalEdgeStyle;rounded=0;orthogonalLoop=1;jettySize=auto;html=1;entryX=0.5;entryY=0;entryDx=0;entryDy=0;" edge="1" parent="1" source="sEXIVBVAYyvHJAa7rBJ1-10" target="sEXIVBVAYyvHJAa7rBJ1-27">
          <mxGeometry relative="1" as="geometry" />
        </mxCell>
        <mxCell id="sEXIVBVAYyvHJAa7rBJ1-10" value="&lt;div&gt;expand by&lt;/div&gt;&lt;div&gt;expert id&lt;/div&gt;" style="rounded=1;whiteSpace=wrap;html=1;" vertex="1" parent="1">
          <mxGeometry x="239" y="287" width="70" height="30" as="geometry" />
        </mxCell>
        <mxCell id="sEXIVBVAYyvHJAa7rBJ1-12" value="0" style="rounded=0;whiteSpace=wrap;html=1;fillColor=#f5f5f5;fontColor=#333333;strokeColor=#666666;" vertex="1" parent="1">
          <mxGeometry x="369" y="201" width="20" height="20" as="geometry" />
        </mxCell>
        <mxCell id="sEXIVBVAYyvHJAa7rBJ1-13" value="1" style="rounded=0;whiteSpace=wrap;html=1;fillColor=#f5f5f5;fontColor=#333333;strokeColor=#666666;" vertex="1" parent="1">
          <mxGeometry x="389" y="201" width="20" height="20" as="geometry" />
        </mxCell>
        <mxCell id="sEXIVBVAYyvHJAa7rBJ1-14" value="2" style="rounded=0;whiteSpace=wrap;html=1;fillColor=#f5f5f5;fontColor=#333333;strokeColor=#666666;" vertex="1" parent="1">
          <mxGeometry x="409" y="201" width="20" height="20" as="geometry" />
        </mxCell>
        <mxCell id="sEXIVBVAYyvHJAa7rBJ1-15" value="3" style="rounded=0;whiteSpace=wrap;html=1;fillColor=#f5f5f5;fontColor=#333333;strokeColor=#666666;" vertex="1" parent="1">
          <mxGeometry x="429" y="201" width="20" height="20" as="geometry" />
        </mxCell>
        <mxCell id="sEXIVBVAYyvHJAa7rBJ1-16" value="1" style="rounded=0;whiteSpace=wrap;html=1;dashed=1;" vertex="1" parent="1">
          <mxGeometry x="369" y="221" width="20" height="20" as="geometry" />
        </mxCell>
        <mxCell id="sEXIVBVAYyvHJAa7rBJ1-17" value="2" style="rounded=0;whiteSpace=wrap;html=1;dashed=1;" vertex="1" parent="1">
          <mxGeometry x="389" y="221" width="20" height="20" as="geometry" />
        </mxCell>
        <mxCell id="sEXIVBVAYyvHJAa7rBJ1-18" value="0" style="rounded=0;whiteSpace=wrap;html=1;dashed=1;" vertex="1" parent="1">
          <mxGeometry x="409" y="221" width="20" height="20" as="geometry" />
        </mxCell>
        <mxCell id="sEXIVBVAYyvHJAa7rBJ1-19" value="2" style="rounded=0;whiteSpace=wrap;html=1;dashed=1;" vertex="1" parent="1">
          <mxGeometry x="429" y="221" width="20" height="20" as="geometry" />
        </mxCell>
        <mxCell id="sEXIVBVAYyvHJAa7rBJ1-20" value="3" style="rounded=0;whiteSpace=wrap;html=1;dashed=1;" vertex="1" parent="1">
          <mxGeometry x="369" y="241" width="20" height="20" as="geometry" />
        </mxCell>
        <mxCell id="sEXIVBVAYyvHJAa7rBJ1-21" value="0" style="rounded=0;whiteSpace=wrap;html=1;dashed=1;" vertex="1" parent="1">
          <mxGeometry x="389" y="241" width="20" height="20" as="geometry" />
        </mxCell>
        <mxCell id="sEXIVBVAYyvHJAa7rBJ1-22" value="3" style="rounded=0;whiteSpace=wrap;html=1;dashed=1;" vertex="1" parent="1">
          <mxGeometry x="409" y="241" width="20" height="20" as="geometry" />
        </mxCell>
        <mxCell id="sEXIVBVAYyvHJAa7rBJ1-23" value="3" style="rounded=0;whiteSpace=wrap;html=1;dashed=1;" vertex="1" parent="1">
          <mxGeometry x="429" y="241" width="20" height="20" as="geometry" />
        </mxCell>
        <mxCell id="sEXIVBVAYyvHJAa7rBJ1-24" value="token id:" style="text;html=1;align=center;verticalAlign=middle;resizable=0;points=[];autosize=1;strokeColor=none;fillColor=none;" vertex="1" parent="1">
          <mxGeometry x="289" y="102" width="70" height="30" as="geometry" />
        </mxCell>
        <mxCell id="sEXIVBVAYyvHJAa7rBJ1-25" value="token id:" style="text;html=1;align=center;verticalAlign=middle;resizable=0;points=[];autosize=1;strokeColor=none;fillColor=none;" vertex="1" parent="1">
          <mxGeometry x="292" y="196" width="70" height="30" as="geometry" />
        </mxCell>
        <mxCell id="sEXIVBVAYyvHJAa7rBJ1-26" value="top2 expert id:" style="text;html=1;align=center;verticalAlign=middle;resizable=0;points=[];autosize=1;strokeColor=none;fillColor=none;" vertex="1" parent="1">
          <mxGeometry x="269" y="226" width="100" height="30" as="geometry" />
        </mxCell>
        <mxCell id="sEXIVBVAYyvHJAa7rBJ1-47" style="edgeStyle=orthogonalEdgeStyle;rounded=0;orthogonalLoop=1;jettySize=auto;html=1;entryX=0.5;entryY=0;entryDx=0;entryDy=0;" edge="1" parent="1" source="sEXIVBVAYyvHJAa7rBJ1-27" target="sEXIVBVAYyvHJAa7rBJ1-46">
          <mxGeometry relative="1" as="geometry" />
        </mxCell>
        <mxCell id="sEXIVBVAYyvHJAa7rBJ1-27" value="sort by expert id" style="rounded=1;whiteSpace=wrap;html=1;" vertex="1" parent="1">
          <mxGeometry x="239" y="397" width="70" height="30" as="geometry" />
        </mxCell>
        <mxCell id="sEXIVBVAYyvHJAa7rBJ1-30" value="0" style="rounded=0;whiteSpace=wrap;html=1;fillColor=#f5f5f5;fontColor=#333333;strokeColor=#666666;" vertex="1" parent="1">
          <mxGeometry x="319" y="337" width="20" height="20" as="geometry" />
        </mxCell>
        <mxCell id="sEXIVBVAYyvHJAa7rBJ1-31" value="1" style="rounded=0;whiteSpace=wrap;html=1;fillColor=#f5f5f5;fontColor=#333333;strokeColor=#666666;" vertex="1" parent="1">
          <mxGeometry x="359" y="337" width="20" height="20" as="geometry" />
        </mxCell>
        <mxCell id="sEXIVBVAYyvHJAa7rBJ1-32" value="2" style="rounded=0;whiteSpace=wrap;html=1;fillColor=#f5f5f5;fontColor=#333333;strokeColor=#666666;" vertex="1" parent="1">
          <mxGeometry x="399" y="337" width="20" height="20" as="geometry" />
        </mxCell>
        <mxCell id="sEXIVBVAYyvHJAa7rBJ1-33" value="3" style="rounded=0;whiteSpace=wrap;html=1;fillColor=#f5f5f5;fontColor=#333333;strokeColor=#666666;" vertex="1" parent="1">
          <mxGeometry x="439" y="337" width="20" height="20" as="geometry" />
        </mxCell>
        <mxCell id="sEXIVBVAYyvHJAa7rBJ1-34" value="1" style="rounded=0;whiteSpace=wrap;html=1;dashed=1;" vertex="1" parent="1">
          <mxGeometry x="319" y="357" width="20" height="20" as="geometry" />
        </mxCell>
        <mxCell id="sEXIVBVAYyvHJAa7rBJ1-35" value="2" style="rounded=0;whiteSpace=wrap;html=1;dashed=1;" vertex="1" parent="1">
          <mxGeometry x="359" y="357" width="20" height="20" as="geometry" />
        </mxCell>
        <mxCell id="sEXIVBVAYyvHJAa7rBJ1-36" value="0" style="rounded=0;whiteSpace=wrap;html=1;dashed=1;" vertex="1" parent="1">
          <mxGeometry x="399" y="357" width="20" height="20" as="geometry" />
        </mxCell>
        <mxCell id="sEXIVBVAYyvHJAa7rBJ1-37" value="2" style="rounded=0;whiteSpace=wrap;html=1;dashed=1;" vertex="1" parent="1">
          <mxGeometry x="439" y="357" width="20" height="20" as="geometry" />
        </mxCell>
        <mxCell id="sEXIVBVAYyvHJAa7rBJ1-38" value="3" style="rounded=0;whiteSpace=wrap;html=1;dashed=1;" vertex="1" parent="1">
          <mxGeometry x="339" y="357" width="20" height="20" as="geometry" />
        </mxCell>
        <mxCell id="sEXIVBVAYyvHJAa7rBJ1-39" value="0" style="rounded=0;whiteSpace=wrap;html=1;dashed=1;" vertex="1" parent="1">
          <mxGeometry x="379" y="357" width="20" height="20" as="geometry" />
        </mxCell>
        <mxCell id="sEXIVBVAYyvHJAa7rBJ1-40" value="3" style="rounded=0;whiteSpace=wrap;html=1;dashed=1;" vertex="1" parent="1">
          <mxGeometry x="419" y="357" width="20" height="20" as="geometry" />
        </mxCell>
        <mxCell id="sEXIVBVAYyvHJAa7rBJ1-41" value="3" style="rounded=0;whiteSpace=wrap;html=1;dashed=1;" vertex="1" parent="1">
          <mxGeometry x="459" y="357" width="20" height="20" as="geometry" />
        </mxCell>
        <mxCell id="sEXIVBVAYyvHJAa7rBJ1-42" value="0" style="rounded=0;whiteSpace=wrap;html=1;fillColor=#f5f5f5;fontColor=#333333;strokeColor=#666666;" vertex="1" parent="1">
          <mxGeometry x="339" y="337" width="20" height="20" as="geometry" />
        </mxCell>
        <mxCell id="sEXIVBVAYyvHJAa7rBJ1-43" value="1" style="rounded=0;whiteSpace=wrap;html=1;fillColor=#f5f5f5;fontColor=#333333;strokeColor=#666666;" vertex="1" parent="1">
          <mxGeometry x="379" y="337" width="20" height="20" as="geometry" />
        </mxCell>
        <mxCell id="sEXIVBVAYyvHJAa7rBJ1-44" value="2" style="rounded=0;whiteSpace=wrap;html=1;fillColor=#f5f5f5;fontColor=#333333;strokeColor=#666666;" vertex="1" parent="1">
          <mxGeometry x="419" y="337" width="20" height="20" as="geometry" />
        </mxCell>
        <mxCell id="sEXIVBVAYyvHJAa7rBJ1-45" value="3" style="rounded=0;whiteSpace=wrap;html=1;fillColor=#f5f5f5;fontColor=#333333;strokeColor=#666666;" vertex="1" parent="1">
          <mxGeometry x="459" y="337" width="20" height="20" as="geometry" />
        </mxCell>
        <mxCell id="sEXIVBVAYyvHJAa7rBJ1-204" style="edgeStyle=none;rounded=0;orthogonalLoop=1;jettySize=auto;html=1;entryX=0.5;entryY=0;entryDx=0;entryDy=0;" edge="1" parent="1" source="sEXIVBVAYyvHJAa7rBJ1-46" target="sEXIVBVAYyvHJAa7rBJ1-203">
          <mxGeometry relative="1" as="geometry" />
        </mxCell>
        <mxCell id="sEXIVBVAYyvHJAa7rBJ1-46" value="&lt;div&gt;exchange&lt;/div&gt;&lt;div&gt;between devices&lt;/div&gt;&lt;div&gt;(all to all)&lt;/div&gt;" style="rounded=1;whiteSpace=wrap;html=1;" vertex="1" parent="1">
          <mxGeometry x="239" y="507" width="70" height="60" as="geometry" />
        </mxCell>
        <mxCell id="sEXIVBVAYyvHJAa7rBJ1-48" value="2" style="rounded=0;whiteSpace=wrap;html=1;fillColor=#f5f5f5;fontColor=#333333;strokeColor=#666666;" vertex="1" parent="1">
          <mxGeometry x="339" y="440" width="20" height="20" as="geometry" />
        </mxCell>
        <mxCell id="sEXIVBVAYyvHJAa7rBJ1-49" value="0" style="rounded=0;whiteSpace=wrap;html=1;dashed=1;" vertex="1" parent="1">
          <mxGeometry x="339" y="460" width="20" height="20" as="geometry" />
        </mxCell>
        <mxCell id="sEXIVBVAYyvHJAa7rBJ1-50" value="0" style="rounded=0;whiteSpace=wrap;html=1;dashed=1;" vertex="1" parent="1">
          <mxGeometry x="319" y="460" width="20" height="20" as="geometry" />
        </mxCell>
        <mxCell id="sEXIVBVAYyvHJAa7rBJ1-51" value="1" style="rounded=0;whiteSpace=wrap;html=1;fillColor=#f5f5f5;fontColor=#333333;strokeColor=#666666;" vertex="1" parent="1">
          <mxGeometry x="319" y="440" width="20" height="20" as="geometry" />
        </mxCell>
        <mxCell id="sEXIVBVAYyvHJAa7rBJ1-52" value="0" style="rounded=0;whiteSpace=wrap;html=1;fillColor=#f5f5f5;fontColor=#333333;strokeColor=#666666;" vertex="1" parent="1">
          <mxGeometry x="359" y="440" width="20" height="20" as="geometry" />
        </mxCell>
        <mxCell id="sEXIVBVAYyvHJAa7rBJ1-53" value="1" style="rounded=0;whiteSpace=wrap;html=1;dashed=1;" vertex="1" parent="1">
          <mxGeometry x="359" y="460" width="20" height="20" as="geometry" />
        </mxCell>
        <mxCell id="sEXIVBVAYyvHJAa7rBJ1-54" value="1" style="rounded=0;whiteSpace=wrap;html=1;fillColor=#f5f5f5;fontColor=#333333;strokeColor=#666666;" vertex="1" parent="1">
          <mxGeometry x="379" y="440" width="20" height="20" as="geometry" />
        </mxCell>
        <mxCell id="sEXIVBVAYyvHJAa7rBJ1-55" value="2" style="rounded=0;whiteSpace=wrap;html=1;dashed=1;" vertex="1" parent="1">
          <mxGeometry x="379" y="460" width="20" height="20" as="geometry" />
        </mxCell>
        <mxCell id="sEXIVBVAYyvHJAa7rBJ1-56" value="3" style="rounded=0;whiteSpace=wrap;html=1;dashed=1;" vertex="1" parent="1">
          <mxGeometry x="439" y="460" width="20" height="20" as="geometry" />
        </mxCell>
        <mxCell id="sEXIVBVAYyvHJAa7rBJ1-57" value="2" style="rounded=0;whiteSpace=wrap;html=1;fillColor=#f5f5f5;fontColor=#333333;strokeColor=#666666;" vertex="1" parent="1">
          <mxGeometry x="439" y="440" width="20" height="20" as="geometry" />
        </mxCell>
        <mxCell id="sEXIVBVAYyvHJAa7rBJ1-58" value="3" style="rounded=0;whiteSpace=wrap;html=1;dashed=1;" vertex="1" parent="1">
          <mxGeometry x="459" y="460" width="20" height="20" as="geometry" />
        </mxCell>
        <mxCell id="sEXIVBVAYyvHJAa7rBJ1-59" value="3" style="rounded=0;whiteSpace=wrap;html=1;fillColor=#f5f5f5;fontColor=#333333;strokeColor=#666666;" vertex="1" parent="1">
          <mxGeometry x="459" y="440" width="20" height="20" as="geometry" />
        </mxCell>
        <mxCell id="sEXIVBVAYyvHJAa7rBJ1-60" value="3" style="rounded=0;whiteSpace=wrap;html=1;dashed=1;" vertex="1" parent="1">
          <mxGeometry x="419" y="460" width="20" height="20" as="geometry" />
        </mxCell>
        <mxCell id="sEXIVBVAYyvHJAa7rBJ1-61" value="0" style="rounded=0;whiteSpace=wrap;html=1;fillColor=#f5f5f5;fontColor=#333333;strokeColor=#666666;" vertex="1" parent="1">
          <mxGeometry x="419" y="440" width="20" height="20" as="geometry" />
        </mxCell>
        <mxCell id="sEXIVBVAYyvHJAa7rBJ1-64" value="3" style="rounded=0;whiteSpace=wrap;html=1;fillColor=#f5f5f5;fontColor=#333333;strokeColor=#666666;" vertex="1" parent="1">
          <mxGeometry x="399" y="440" width="20" height="20" as="geometry" />
        </mxCell>
        <mxCell id="sEXIVBVAYyvHJAa7rBJ1-65" value="2" style="rounded=0;whiteSpace=wrap;html=1;dashed=1;" vertex="1" parent="1">
          <mxGeometry x="399" y="460" width="20" height="20" as="geometry" />
        </mxCell>
        <mxCell id="sEXIVBVAYyvHJAa7rBJ1-66" value="4" style="rounded=0;whiteSpace=wrap;html=1;fillColor=#f5f5f5;fontColor=#333333;strokeColor=#666666;" vertex="1" parent="1">
          <mxGeometry x="902" y="107" width="20" height="20" as="geometry" />
        </mxCell>
        <mxCell id="sEXIVBVAYyvHJAa7rBJ1-67" value="5" style="rounded=0;whiteSpace=wrap;html=1;fillColor=#f5f5f5;fontColor=#333333;strokeColor=#666666;" vertex="1" parent="1">
          <mxGeometry x="922" y="107" width="20" height="20" as="geometry" />
        </mxCell>
        <mxCell id="sEXIVBVAYyvHJAa7rBJ1-68" value="6" style="rounded=0;whiteSpace=wrap;html=1;fillColor=#f5f5f5;fontColor=#333333;strokeColor=#666666;" vertex="1" parent="1">
          <mxGeometry x="942" y="107" width="20" height="20" as="geometry" />
        </mxCell>
        <mxCell id="sEXIVBVAYyvHJAa7rBJ1-69" value="7" style="rounded=0;whiteSpace=wrap;html=1;fillColor=#f5f5f5;fontColor=#333333;strokeColor=#666666;" vertex="1" parent="1">
          <mxGeometry x="962" y="107" width="20" height="20" as="geometry" />
        </mxCell>
        <mxCell id="sEXIVBVAYyvHJAa7rBJ1-70" style="rounded=0;orthogonalLoop=1;jettySize=auto;html=1;entryX=0.5;entryY=0;entryDx=0;entryDy=0;" edge="1" parent="1" source="sEXIVBVAYyvHJAa7rBJ1-71" target="sEXIVBVAYyvHJAa7rBJ1-75">
          <mxGeometry relative="1" as="geometry" />
        </mxCell>
        <mxCell id="sEXIVBVAYyvHJAa7rBJ1-71" value="moe gate" style="rounded=1;whiteSpace=wrap;html=1;" vertex="1" parent="1">
          <mxGeometry x="782" y="157" width="70" height="30" as="geometry" />
        </mxCell>
        <mxCell id="sEXIVBVAYyvHJAa7rBJ1-72" value="assign tokens to experts; assume topk_experts=2" style="text;html=1;align=center;verticalAlign=middle;resizable=0;points=[];autosize=1;strokeColor=none;fillColor=none;" vertex="1" parent="1">
          <mxGeometry x="857" y="157" width="290" height="30" as="geometry" />
        </mxCell>
        <mxCell id="sEXIVBVAYyvHJAa7rBJ1-73" value="" style="endArrow=classic;html=1;rounded=0;entryX=0.5;entryY=0;entryDx=0;entryDy=0;" edge="1" parent="1" target="sEXIVBVAYyvHJAa7rBJ1-71">
          <mxGeometry width="50" height="50" relative="1" as="geometry">
            <mxPoint x="817" y="67" as="sourcePoint" />
            <mxPoint x="812" y="57" as="targetPoint" />
          </mxGeometry>
        </mxCell>
        <mxCell id="sEXIVBVAYyvHJAa7rBJ1-74" style="edgeStyle=orthogonalEdgeStyle;rounded=0;orthogonalLoop=1;jettySize=auto;html=1;entryX=0.5;entryY=0;entryDx=0;entryDy=0;" edge="1" parent="1" source="sEXIVBVAYyvHJAa7rBJ1-75" target="sEXIVBVAYyvHJAa7rBJ1-92">
          <mxGeometry relative="1" as="geometry" />
        </mxCell>
        <mxCell id="sEXIVBVAYyvHJAa7rBJ1-75" value="&lt;div&gt;expand by&lt;/div&gt;&lt;div&gt;expert id&lt;/div&gt;" style="rounded=1;whiteSpace=wrap;html=1;" vertex="1" parent="1">
          <mxGeometry x="782" y="287" width="70" height="30" as="geometry" />
        </mxCell>
        <mxCell id="sEXIVBVAYyvHJAa7rBJ1-80" value="2" style="rounded=0;whiteSpace=wrap;html=1;dashed=1;" vertex="1" parent="1">
          <mxGeometry x="912" y="221" width="20" height="20" as="geometry" />
        </mxCell>
        <mxCell id="sEXIVBVAYyvHJAa7rBJ1-81" value="1" style="rounded=0;whiteSpace=wrap;html=1;dashed=1;" vertex="1" parent="1">
          <mxGeometry x="932" y="221" width="20" height="20" as="geometry" />
        </mxCell>
        <mxCell id="sEXIVBVAYyvHJAa7rBJ1-82" value="0" style="rounded=0;whiteSpace=wrap;html=1;dashed=1;" vertex="1" parent="1">
          <mxGeometry x="952" y="221" width="20" height="20" as="geometry" />
        </mxCell>
        <mxCell id="sEXIVBVAYyvHJAa7rBJ1-83" value="1" style="rounded=0;whiteSpace=wrap;html=1;dashed=1;" vertex="1" parent="1">
          <mxGeometry x="972" y="221" width="20" height="20" as="geometry" />
        </mxCell>
        <mxCell id="sEXIVBVAYyvHJAa7rBJ1-84" value="3" style="rounded=0;whiteSpace=wrap;html=1;dashed=1;" vertex="1" parent="1">
          <mxGeometry x="912" y="241" width="20" height="20" as="geometry" />
        </mxCell>
        <mxCell id="sEXIVBVAYyvHJAa7rBJ1-85" value="2" style="rounded=0;whiteSpace=wrap;html=1;dashed=1;" vertex="1" parent="1">
          <mxGeometry x="932" y="241" width="20" height="20" as="geometry" />
        </mxCell>
        <mxCell id="sEXIVBVAYyvHJAa7rBJ1-86" value="1" style="rounded=0;whiteSpace=wrap;html=1;dashed=1;" vertex="1" parent="1">
          <mxGeometry x="952" y="241" width="20" height="20" as="geometry" />
        </mxCell>
        <mxCell id="sEXIVBVAYyvHJAa7rBJ1-87" value="2" style="rounded=0;whiteSpace=wrap;html=1;dashed=1;" vertex="1" parent="1">
          <mxGeometry x="972" y="241" width="20" height="20" as="geometry" />
        </mxCell>
        <mxCell id="sEXIVBVAYyvHJAa7rBJ1-88" value="token id:" style="text;html=1;align=center;verticalAlign=middle;resizable=0;points=[];autosize=1;strokeColor=none;fillColor=none;" vertex="1" parent="1">
          <mxGeometry x="832" y="102" width="70" height="30" as="geometry" />
        </mxCell>
        <mxCell id="sEXIVBVAYyvHJAa7rBJ1-89" value="token id:" style="text;html=1;align=center;verticalAlign=middle;resizable=0;points=[];autosize=1;strokeColor=none;fillColor=none;" vertex="1" parent="1">
          <mxGeometry x="835" y="196" width="70" height="30" as="geometry" />
        </mxCell>
        <mxCell id="sEXIVBVAYyvHJAa7rBJ1-90" value="top2 expert id:" style="text;html=1;align=center;verticalAlign=middle;resizable=0;points=[];autosize=1;strokeColor=none;fillColor=none;" vertex="1" parent="1">
          <mxGeometry x="812" y="226" width="100" height="30" as="geometry" />
        </mxCell>
        <mxCell id="sEXIVBVAYyvHJAa7rBJ1-91" style="edgeStyle=orthogonalEdgeStyle;rounded=0;orthogonalLoop=1;jettySize=auto;html=1;entryX=0.5;entryY=0;entryDx=0;entryDy=0;" edge="1" parent="1" source="sEXIVBVAYyvHJAa7rBJ1-92" target="sEXIVBVAYyvHJAa7rBJ1-109">
          <mxGeometry relative="1" as="geometry" />
        </mxCell>
        <mxCell id="sEXIVBVAYyvHJAa7rBJ1-92" value="sort by expert id" style="rounded=1;whiteSpace=wrap;html=1;" vertex="1" parent="1">
          <mxGeometry x="782" y="397" width="70" height="30" as="geometry" />
        </mxCell>
        <mxCell id="sEXIVBVAYyvHJAa7rBJ1-220" style="edgeStyle=none;rounded=0;orthogonalLoop=1;jettySize=auto;html=1;entryX=0.5;entryY=0;entryDx=0;entryDy=0;" edge="1" parent="1" source="sEXIVBVAYyvHJAa7rBJ1-109" target="sEXIVBVAYyvHJAa7rBJ1-219">
          <mxGeometry relative="1" as="geometry" />
        </mxCell>
        <mxCell id="sEXIVBVAYyvHJAa7rBJ1-109" value="&lt;div&gt;exchange&lt;/div&gt;&lt;div&gt;between&lt;/div&gt;&lt;div&gt;devices&lt;/div&gt;&lt;div&gt;(all to all)&lt;/div&gt;" style="rounded=1;whiteSpace=wrap;html=1;" vertex="1" parent="1">
          <mxGeometry x="782" y="507" width="70" height="60" as="geometry" />
        </mxCell>
        <mxCell id="sEXIVBVAYyvHJAa7rBJ1-126" value="4" style="rounded=0;whiteSpace=wrap;html=1;fillColor=#f5f5f5;fontColor=#333333;strokeColor=#666666;" vertex="1" parent="1">
          <mxGeometry x="912" y="201" width="20" height="20" as="geometry" />
        </mxCell>
        <mxCell id="sEXIVBVAYyvHJAa7rBJ1-127" value="5" style="rounded=0;whiteSpace=wrap;html=1;fillColor=#f5f5f5;fontColor=#333333;strokeColor=#666666;" vertex="1" parent="1">
          <mxGeometry x="932" y="201" width="20" height="20" as="geometry" />
        </mxCell>
        <mxCell id="sEXIVBVAYyvHJAa7rBJ1-128" value="6" style="rounded=0;whiteSpace=wrap;html=1;fillColor=#f5f5f5;fontColor=#333333;strokeColor=#666666;" vertex="1" parent="1">
          <mxGeometry x="952" y="201" width="20" height="20" as="geometry" />
        </mxCell>
        <mxCell id="sEXIVBVAYyvHJAa7rBJ1-129" value="7" style="rounded=0;whiteSpace=wrap;html=1;fillColor=#f5f5f5;fontColor=#333333;strokeColor=#666666;" vertex="1" parent="1">
          <mxGeometry x="972" y="201" width="20" height="20" as="geometry" />
        </mxCell>
        <mxCell id="sEXIVBVAYyvHJAa7rBJ1-130" value="4" style="rounded=0;whiteSpace=wrap;html=1;fillColor=#f5f5f5;fontColor=#333333;strokeColor=#666666;" vertex="1" parent="1">
          <mxGeometry x="852" y="337" width="20" height="20" as="geometry" />
        </mxCell>
        <mxCell id="sEXIVBVAYyvHJAa7rBJ1-131" value="5" style="rounded=0;whiteSpace=wrap;html=1;fillColor=#f5f5f5;fontColor=#333333;strokeColor=#666666;" vertex="1" parent="1">
          <mxGeometry x="892" y="337" width="20" height="20" as="geometry" />
        </mxCell>
        <mxCell id="sEXIVBVAYyvHJAa7rBJ1-132" value="6" style="rounded=0;whiteSpace=wrap;html=1;fillColor=#f5f5f5;fontColor=#333333;strokeColor=#666666;" vertex="1" parent="1">
          <mxGeometry x="932" y="337" width="20" height="20" as="geometry" />
        </mxCell>
        <mxCell id="sEXIVBVAYyvHJAa7rBJ1-133" value="7" style="rounded=0;whiteSpace=wrap;html=1;fillColor=#f5f5f5;fontColor=#333333;strokeColor=#666666;" vertex="1" parent="1">
          <mxGeometry x="992" y="337" width="20" height="20" as="geometry" />
        </mxCell>
        <mxCell id="sEXIVBVAYyvHJAa7rBJ1-134" value="4" style="rounded=0;whiteSpace=wrap;html=1;fillColor=#f5f5f5;fontColor=#333333;strokeColor=#666666;" vertex="1" parent="1">
          <mxGeometry x="872" y="337" width="20" height="20" as="geometry" />
        </mxCell>
        <mxCell id="sEXIVBVAYyvHJAa7rBJ1-135" value="5" style="rounded=0;whiteSpace=wrap;html=1;fillColor=#f5f5f5;fontColor=#333333;strokeColor=#666666;" vertex="1" parent="1">
          <mxGeometry x="912" y="337" width="20" height="20" as="geometry" />
        </mxCell>
        <mxCell id="sEXIVBVAYyvHJAa7rBJ1-136" value="6" style="rounded=0;whiteSpace=wrap;html=1;fillColor=#f5f5f5;fontColor=#333333;strokeColor=#666666;" vertex="1" parent="1">
          <mxGeometry x="952" y="337" width="20" height="20" as="geometry" />
        </mxCell>
        <mxCell id="sEXIVBVAYyvHJAa7rBJ1-137" value="7" style="rounded=0;whiteSpace=wrap;html=1;fillColor=#f5f5f5;fontColor=#333333;strokeColor=#666666;" vertex="1" parent="1">
          <mxGeometry x="972" y="337" width="20" height="20" as="geometry" />
        </mxCell>
        <mxCell id="sEXIVBVAYyvHJAa7rBJ1-138" value="2" style="rounded=0;whiteSpace=wrap;html=1;dashed=1;" vertex="1" parent="1">
          <mxGeometry x="852" y="357" width="20" height="20" as="geometry" />
        </mxCell>
        <mxCell id="sEXIVBVAYyvHJAa7rBJ1-139" value="3" style="rounded=0;whiteSpace=wrap;html=1;dashed=1;" vertex="1" parent="1">
          <mxGeometry x="872" y="357" width="20" height="20" as="geometry" />
        </mxCell>
        <mxCell id="sEXIVBVAYyvHJAa7rBJ1-140" value="1" style="rounded=0;whiteSpace=wrap;html=1;dashed=1;" vertex="1" parent="1">
          <mxGeometry x="892" y="357" width="20" height="20" as="geometry" />
        </mxCell>
        <mxCell id="sEXIVBVAYyvHJAa7rBJ1-141" value="2" style="rounded=0;whiteSpace=wrap;html=1;dashed=1;" vertex="1" parent="1">
          <mxGeometry x="912" y="357" width="20" height="20" as="geometry" />
        </mxCell>
        <mxCell id="sEXIVBVAYyvHJAa7rBJ1-142" value="0" style="rounded=0;whiteSpace=wrap;html=1;dashed=1;" vertex="1" parent="1">
          <mxGeometry x="932" y="357" width="20" height="20" as="geometry" />
        </mxCell>
        <mxCell id="sEXIVBVAYyvHJAa7rBJ1-143" value="1" style="rounded=0;whiteSpace=wrap;html=1;dashed=1;" vertex="1" parent="1">
          <mxGeometry x="952" y="357" width="20" height="20" as="geometry" />
        </mxCell>
        <mxCell id="sEXIVBVAYyvHJAa7rBJ1-144" value="1" style="rounded=0;whiteSpace=wrap;html=1;dashed=1;" vertex="1" parent="1">
          <mxGeometry x="972" y="357" width="20" height="20" as="geometry" />
        </mxCell>
        <mxCell id="sEXIVBVAYyvHJAa7rBJ1-145" value="2" style="rounded=0;whiteSpace=wrap;html=1;dashed=1;" vertex="1" parent="1">
          <mxGeometry x="992" y="357" width="20" height="20" as="geometry" />
        </mxCell>
        <mxCell id="sEXIVBVAYyvHJAa7rBJ1-147" value="6" style="rounded=0;whiteSpace=wrap;html=1;fillColor=#f5f5f5;fontColor=#333333;strokeColor=#666666;" vertex="1" parent="1">
          <mxGeometry x="852" y="450" width="20" height="20" as="geometry" />
        </mxCell>
        <mxCell id="sEXIVBVAYyvHJAa7rBJ1-148" value="0" style="rounded=0;whiteSpace=wrap;html=1;dashed=1;" vertex="1" parent="1">
          <mxGeometry x="852" y="470" width="20" height="20" as="geometry" />
        </mxCell>
        <mxCell id="sEXIVBVAYyvHJAa7rBJ1-149" value="5" style="rounded=0;whiteSpace=wrap;html=1;fillColor=#f5f5f5;fontColor=#333333;strokeColor=#666666;" vertex="1" parent="1">
          <mxGeometry x="872" y="450" width="20" height="20" as="geometry" />
        </mxCell>
        <mxCell id="sEXIVBVAYyvHJAa7rBJ1-150" value="1" style="rounded=0;whiteSpace=wrap;html=1;dashed=1;" vertex="1" parent="1">
          <mxGeometry x="872" y="470" width="20" height="20" as="geometry" />
        </mxCell>
        <mxCell id="sEXIVBVAYyvHJAa7rBJ1-151" value="6" style="rounded=0;whiteSpace=wrap;html=1;fillColor=#f5f5f5;fontColor=#333333;strokeColor=#666666;" vertex="1" parent="1">
          <mxGeometry x="892" y="450" width="20" height="20" as="geometry" />
        </mxCell>
        <mxCell id="sEXIVBVAYyvHJAa7rBJ1-152" value="7" style="rounded=0;whiteSpace=wrap;html=1;fillColor=#f5f5f5;fontColor=#333333;strokeColor=#666666;" vertex="1" parent="1">
          <mxGeometry x="912" y="450" width="20" height="20" as="geometry" />
        </mxCell>
        <mxCell id="sEXIVBVAYyvHJAa7rBJ1-153" value="1" style="rounded=0;whiteSpace=wrap;html=1;dashed=1;" vertex="1" parent="1">
          <mxGeometry x="892" y="470" width="20" height="20" as="geometry" />
        </mxCell>
        <mxCell id="sEXIVBVAYyvHJAa7rBJ1-154" value="1" style="rounded=0;whiteSpace=wrap;html=1;dashed=1;" vertex="1" parent="1">
          <mxGeometry x="912" y="470" width="20" height="20" as="geometry" />
        </mxCell>
        <mxCell id="sEXIVBVAYyvHJAa7rBJ1-155" value="4" style="rounded=0;whiteSpace=wrap;html=1;fillColor=#f5f5f5;fontColor=#333333;strokeColor=#666666;" vertex="1" parent="1">
          <mxGeometry x="932" y="450" width="20" height="20" as="geometry" />
        </mxCell>
        <mxCell id="sEXIVBVAYyvHJAa7rBJ1-156" value="2" style="rounded=0;whiteSpace=wrap;html=1;dashed=1;" vertex="1" parent="1">
          <mxGeometry x="932" y="470" width="20" height="20" as="geometry" />
        </mxCell>
        <mxCell id="sEXIVBVAYyvHJAa7rBJ1-157" value="5" style="rounded=0;whiteSpace=wrap;html=1;fillColor=#f5f5f5;fontColor=#333333;strokeColor=#666666;" vertex="1" parent="1">
          <mxGeometry x="952" y="450" width="20" height="20" as="geometry" />
        </mxCell>
        <mxCell id="sEXIVBVAYyvHJAa7rBJ1-158" value="2" style="rounded=0;whiteSpace=wrap;html=1;dashed=1;" vertex="1" parent="1">
          <mxGeometry x="952" y="470" width="20" height="20" as="geometry" />
        </mxCell>
        <mxCell id="sEXIVBVAYyvHJAa7rBJ1-159" value="7" style="rounded=0;whiteSpace=wrap;html=1;fillColor=#f5f5f5;fontColor=#333333;strokeColor=#666666;" vertex="1" parent="1">
          <mxGeometry x="972" y="450" width="20" height="20" as="geometry" />
        </mxCell>
        <mxCell id="sEXIVBVAYyvHJAa7rBJ1-160" value="2" style="rounded=0;whiteSpace=wrap;html=1;dashed=1;" vertex="1" parent="1">
          <mxGeometry x="972" y="470" width="20" height="20" as="geometry" />
        </mxCell>
        <mxCell id="sEXIVBVAYyvHJAa7rBJ1-161" value="4" style="rounded=0;whiteSpace=wrap;html=1;fillColor=#f5f5f5;fontColor=#333333;strokeColor=#666666;" vertex="1" parent="1">
          <mxGeometry x="992" y="450" width="20" height="20" as="geometry" />
        </mxCell>
        <mxCell id="sEXIVBVAYyvHJAa7rBJ1-162" value="3" style="rounded=0;whiteSpace=wrap;html=1;dashed=1;" vertex="1" parent="1">
          <mxGeometry x="992" y="470" width="20" height="20" as="geometry" />
        </mxCell>
        <mxCell id="sEXIVBVAYyvHJAa7rBJ1-163" value="after exchange, device 0 only has tokens assigned to expert 0 and 1" style="text;html=1;align=center;verticalAlign=middle;resizable=0;points=[];autosize=1;strokeColor=none;fillColor=none;" vertex="1" parent="1">
          <mxGeometry x="309" y="507" width="380" height="30" as="geometry" />
        </mxCell>
        <mxCell id="sEXIVBVAYyvHJAa7rBJ1-164" value="after exchange, device 1 only has tokens assigned to expert 2 and 3" style="text;html=1;align=center;verticalAlign=middle;resizable=0;points=[];autosize=1;strokeColor=none;fillColor=none;" vertex="1" parent="1">
          <mxGeometry x="872" y="507" width="380" height="30" as="geometry" />
        </mxCell>
        <mxCell id="sEXIVBVAYyvHJAa7rBJ1-165" value="2" style="rounded=0;whiteSpace=wrap;html=1;fillColor=#f5f5f5;fontColor=#333333;strokeColor=#666666;" vertex="1" parent="1">
          <mxGeometry x="339" y="607" width="20" height="20" as="geometry" />
        </mxCell>
        <mxCell id="sEXIVBVAYyvHJAa7rBJ1-166" value="0" style="rounded=0;whiteSpace=wrap;html=1;dashed=1;" vertex="1" parent="1">
          <mxGeometry x="339" y="627" width="20" height="20" as="geometry" />
        </mxCell>
        <mxCell id="sEXIVBVAYyvHJAa7rBJ1-167" value="0" style="rounded=0;whiteSpace=wrap;html=1;dashed=1;" vertex="1" parent="1">
          <mxGeometry x="319" y="627" width="20" height="20" as="geometry" />
        </mxCell>
        <mxCell id="sEXIVBVAYyvHJAa7rBJ1-168" value="1" style="rounded=0;whiteSpace=wrap;html=1;fillColor=#f5f5f5;fontColor=#333333;strokeColor=#666666;" vertex="1" parent="1">
          <mxGeometry x="319" y="607" width="20" height="20" as="geometry" />
        </mxCell>
        <mxCell id="sEXIVBVAYyvHJAa7rBJ1-169" value="0" style="rounded=0;whiteSpace=wrap;html=1;fillColor=#f5f5f5;fontColor=#333333;strokeColor=#666666;" vertex="1" parent="1">
          <mxGeometry x="359" y="607" width="20" height="20" as="geometry" />
        </mxCell>
        <mxCell id="sEXIVBVAYyvHJAa7rBJ1-170" value="1" style="rounded=0;whiteSpace=wrap;html=1;dashed=1;" vertex="1" parent="1">
          <mxGeometry x="359" y="627" width="20" height="20" as="geometry" />
        </mxCell>
        <mxCell id="sEXIVBVAYyvHJAa7rBJ1-171" value="1" style="rounded=0;whiteSpace=wrap;html=1;fillColor=#f5f5f5;fontColor=#333333;strokeColor=#666666;" vertex="1" parent="1">
          <mxGeometry x="872" y="607" width="20" height="20" as="geometry" />
        </mxCell>
        <mxCell id="sEXIVBVAYyvHJAa7rBJ1-172" value="2" style="rounded=0;whiteSpace=wrap;html=1;dashed=1;" vertex="1" parent="1">
          <mxGeometry x="872" y="627" width="20" height="20" as="geometry" />
        </mxCell>
        <mxCell id="sEXIVBVAYyvHJAa7rBJ1-173" value="3" style="rounded=0;whiteSpace=wrap;html=1;dashed=1;" vertex="1" parent="1">
          <mxGeometry x="932" y="627" width="20" height="20" as="geometry" />
        </mxCell>
        <mxCell id="sEXIVBVAYyvHJAa7rBJ1-174" value="2" style="rounded=0;whiteSpace=wrap;html=1;fillColor=#f5f5f5;fontColor=#333333;strokeColor=#666666;" vertex="1" parent="1">
          <mxGeometry x="932" y="607" width="20" height="20" as="geometry" />
        </mxCell>
        <mxCell id="sEXIVBVAYyvHJAa7rBJ1-175" value="3" style="rounded=0;whiteSpace=wrap;html=1;dashed=1;" vertex="1" parent="1">
          <mxGeometry x="952" y="627" width="20" height="20" as="geometry" />
        </mxCell>
        <mxCell id="sEXIVBVAYyvHJAa7rBJ1-176" value="3" style="rounded=0;whiteSpace=wrap;html=1;fillColor=#f5f5f5;fontColor=#333333;strokeColor=#666666;" vertex="1" parent="1">
          <mxGeometry x="952" y="607" width="20" height="20" as="geometry" />
        </mxCell>
        <mxCell id="sEXIVBVAYyvHJAa7rBJ1-177" value="3" style="rounded=0;whiteSpace=wrap;html=1;dashed=1;" vertex="1" parent="1">
          <mxGeometry x="912" y="627" width="20" height="20" as="geometry" />
        </mxCell>
        <mxCell id="sEXIVBVAYyvHJAa7rBJ1-178" value="0" style="rounded=0;whiteSpace=wrap;html=1;fillColor=#f5f5f5;fontColor=#333333;strokeColor=#666666;" vertex="1" parent="1">
          <mxGeometry x="912" y="607" width="20" height="20" as="geometry" />
        </mxCell>
        <mxCell id="sEXIVBVAYyvHJAa7rBJ1-179" value="3" style="rounded=0;whiteSpace=wrap;html=1;fillColor=#f5f5f5;fontColor=#333333;strokeColor=#666666;" vertex="1" parent="1">
          <mxGeometry x="892" y="607" width="20" height="20" as="geometry" />
        </mxCell>
        <mxCell id="sEXIVBVAYyvHJAa7rBJ1-180" value="2" style="rounded=0;whiteSpace=wrap;html=1;dashed=1;" vertex="1" parent="1">
          <mxGeometry x="892" y="627" width="20" height="20" as="geometry" />
        </mxCell>
        <mxCell id="sEXIVBVAYyvHJAa7rBJ1-181" value="6" style="rounded=0;whiteSpace=wrap;html=1;fillColor=#f5f5f5;fontColor=#333333;strokeColor=#666666;" vertex="1" parent="1">
          <mxGeometry x="379" y="607" width="20" height="20" as="geometry" />
        </mxCell>
        <mxCell id="sEXIVBVAYyvHJAa7rBJ1-182" value="0" style="rounded=0;whiteSpace=wrap;html=1;dashed=1;" vertex="1" parent="1">
          <mxGeometry x="379" y="627" width="20" height="20" as="geometry" />
        </mxCell>
        <mxCell id="sEXIVBVAYyvHJAa7rBJ1-183" value="5" style="rounded=0;whiteSpace=wrap;html=1;fillColor=#f5f5f5;fontColor=#333333;strokeColor=#666666;" vertex="1" parent="1">
          <mxGeometry x="399" y="607" width="20" height="20" as="geometry" />
        </mxCell>
        <mxCell id="sEXIVBVAYyvHJAa7rBJ1-184" value="1" style="rounded=0;whiteSpace=wrap;html=1;dashed=1;" vertex="1" parent="1">
          <mxGeometry x="399" y="627" width="20" height="20" as="geometry" />
        </mxCell>
        <mxCell id="sEXIVBVAYyvHJAa7rBJ1-185" value="6" style="rounded=0;whiteSpace=wrap;html=1;fillColor=#f5f5f5;fontColor=#333333;strokeColor=#666666;" vertex="1" parent="1">
          <mxGeometry x="419" y="607" width="20" height="20" as="geometry" />
        </mxCell>
        <mxCell id="sEXIVBVAYyvHJAa7rBJ1-186" value="7" style="rounded=0;whiteSpace=wrap;html=1;fillColor=#f5f5f5;fontColor=#333333;strokeColor=#666666;" vertex="1" parent="1">
          <mxGeometry x="439" y="607" width="20" height="20" as="geometry" />
        </mxCell>
        <mxCell id="sEXIVBVAYyvHJAa7rBJ1-187" value="1" style="rounded=0;whiteSpace=wrap;html=1;dashed=1;" vertex="1" parent="1">
          <mxGeometry x="419" y="627" width="20" height="20" as="geometry" />
        </mxCell>
        <mxCell id="sEXIVBVAYyvHJAa7rBJ1-188" value="1" style="rounded=0;whiteSpace=wrap;html=1;dashed=1;" vertex="1" parent="1">
          <mxGeometry x="439" y="627" width="20" height="20" as="geometry" />
        </mxCell>
        <mxCell id="sEXIVBVAYyvHJAa7rBJ1-189" value="4" style="rounded=0;whiteSpace=wrap;html=1;fillColor=#f5f5f5;fontColor=#333333;strokeColor=#666666;" vertex="1" parent="1">
          <mxGeometry x="972" y="607" width="20" height="20" as="geometry" />
        </mxCell>
        <mxCell id="sEXIVBVAYyvHJAa7rBJ1-190" value="2" style="rounded=0;whiteSpace=wrap;html=1;dashed=1;" vertex="1" parent="1">
          <mxGeometry x="972" y="627" width="20" height="20" as="geometry" />
        </mxCell>
        <mxCell id="sEXIVBVAYyvHJAa7rBJ1-191" value="5" style="rounded=0;whiteSpace=wrap;html=1;fillColor=#f5f5f5;fontColor=#333333;strokeColor=#666666;" vertex="1" parent="1">
          <mxGeometry x="992" y="607" width="20" height="20" as="geometry" />
        </mxCell>
        <mxCell id="sEXIVBVAYyvHJAa7rBJ1-192" value="2" style="rounded=0;whiteSpace=wrap;html=1;dashed=1;" vertex="1" parent="1">
          <mxGeometry x="992" y="627" width="20" height="20" as="geometry" />
        </mxCell>
        <mxCell id="sEXIVBVAYyvHJAa7rBJ1-193" value="7" style="rounded=0;whiteSpace=wrap;html=1;fillColor=#f5f5f5;fontColor=#333333;strokeColor=#666666;" vertex="1" parent="1">
          <mxGeometry x="1012" y="607" width="20" height="20" as="geometry" />
        </mxCell>
        <mxCell id="sEXIVBVAYyvHJAa7rBJ1-194" value="2" style="rounded=0;whiteSpace=wrap;html=1;dashed=1;" vertex="1" parent="1">
          <mxGeometry x="1012" y="627" width="20" height="20" as="geometry" />
        </mxCell>
        <mxCell id="sEXIVBVAYyvHJAa7rBJ1-195" value="4" style="rounded=0;whiteSpace=wrap;html=1;fillColor=#f5f5f5;fontColor=#333333;strokeColor=#666666;" vertex="1" parent="1">
          <mxGeometry x="1032" y="607" width="20" height="20" as="geometry" />
        </mxCell>
        <mxCell id="sEXIVBVAYyvHJAa7rBJ1-196" value="3" style="rounded=0;whiteSpace=wrap;html=1;dashed=1;" vertex="1" parent="1">
          <mxGeometry x="1032" y="627" width="20" height="20" as="geometry" />
        </mxCell>
        <mxCell id="sEXIVBVAYyvHJAa7rBJ1-199" style="edgeStyle=none;rounded=0;orthogonalLoop=1;jettySize=auto;html=1;entryX=0;entryY=0.25;entryDx=0;entryDy=0;dashed=1;fillColor=#f8cecc;strokeColor=#FF3333;" edge="1" parent="1" source="sEXIVBVAYyvHJAa7rBJ1-197" target="sEXIVBVAYyvHJAa7rBJ1-198">
          <mxGeometry relative="1" as="geometry" />
        </mxCell>
        <mxCell id="sEXIVBVAYyvHJAa7rBJ1-197" value="" style="rounded=0;whiteSpace=wrap;html=1;dashed=1;fillColor=none;strokeColor=#FF3333;" vertex="1" parent="1">
          <mxGeometry x="379" y="430" width="120" height="60" as="geometry" />
        </mxCell>
        <mxCell id="sEXIVBVAYyvHJAa7rBJ1-198" value="" style="rounded=0;whiteSpace=wrap;html=1;dashed=1;fillColor=none;strokeColor=#FF3333;" vertex="1" parent="1">
          <mxGeometry x="852" y="597" width="120" height="60" as="geometry" />
        </mxCell>
        <mxCell id="sEXIVBVAYyvHJAa7rBJ1-200" value="" style="rounded=0;whiteSpace=wrap;html=1;dashed=1;fillColor=none;strokeColor=#0000CC;" vertex="1" parent="1">
          <mxGeometry x="842" y="447" width="90" height="50" as="geometry" />
        </mxCell>
        <mxCell id="sEXIVBVAYyvHJAa7rBJ1-201" value="" style="rounded=0;whiteSpace=wrap;html=1;dashed=1;fillColor=none;strokeColor=#0000CC;" vertex="1" parent="1">
          <mxGeometry x="379" y="602" width="90" height="50" as="geometry" />
        </mxCell>
        <mxCell id="sEXIVBVAYyvHJAa7rBJ1-202" style="edgeStyle=none;rounded=0;orthogonalLoop=1;jettySize=auto;html=1;entryX=1.027;entryY=0.148;entryDx=0;entryDy=0;entryPerimeter=0;dashed=1;strokeColor=#0000CC;" edge="1" parent="1" source="sEXIVBVAYyvHJAa7rBJ1-200" target="sEXIVBVAYyvHJAa7rBJ1-201">
          <mxGeometry relative="1" as="geometry" />
        </mxCell>
        <mxCell id="sEXIVBVAYyvHJAa7rBJ1-241" style="edgeStyle=none;rounded=0;orthogonalLoop=1;jettySize=auto;html=1;" edge="1" parent="1" source="sEXIVBVAYyvHJAa7rBJ1-203" target="sEXIVBVAYyvHJAa7rBJ1-240">
          <mxGeometry relative="1" as="geometry" />
        </mxCell>
        <mxCell id="sEXIVBVAYyvHJAa7rBJ1-203" value="sort chunks" style="rounded=1;whiteSpace=wrap;html=1;" vertex="1" parent="1">
          <mxGeometry x="239" y="687" width="70" height="60" as="geometry" />
        </mxCell>
        <mxCell id="sEXIVBVAYyvHJAa7rBJ1-205" value="2" style="rounded=0;whiteSpace=wrap;html=1;fillColor=#f5f5f5;fontColor=#333333;strokeColor=#666666;" vertex="1" parent="1">
          <mxGeometry x="339" y="777" width="20" height="20" as="geometry" />
        </mxCell>
        <mxCell id="sEXIVBVAYyvHJAa7rBJ1-206" value="0" style="rounded=0;whiteSpace=wrap;html=1;dashed=1;" vertex="1" parent="1">
          <mxGeometry x="339" y="797" width="20" height="20" as="geometry" />
        </mxCell>
        <mxCell id="sEXIVBVAYyvHJAa7rBJ1-207" value="0" style="rounded=0;whiteSpace=wrap;html=1;dashed=1;" vertex="1" parent="1">
          <mxGeometry x="319" y="797" width="20" height="20" as="geometry" />
        </mxCell>
        <mxCell id="sEXIVBVAYyvHJAa7rBJ1-208" value="1" style="rounded=0;whiteSpace=wrap;html=1;fillColor=#f5f5f5;fontColor=#333333;strokeColor=#666666;" vertex="1" parent="1">
          <mxGeometry x="319" y="777" width="20" height="20" as="geometry" />
        </mxCell>
        <mxCell id="sEXIVBVAYyvHJAa7rBJ1-209" value="0" style="rounded=0;whiteSpace=wrap;html=1;fillColor=#f5f5f5;fontColor=#333333;strokeColor=#666666;" vertex="1" parent="1">
          <mxGeometry x="379" y="777" width="20" height="20" as="geometry" />
        </mxCell>
        <mxCell id="sEXIVBVAYyvHJAa7rBJ1-210" value="1" style="rounded=0;whiteSpace=wrap;html=1;dashed=1;" vertex="1" parent="1">
          <mxGeometry x="379" y="797" width="20" height="20" as="geometry" />
        </mxCell>
        <mxCell id="sEXIVBVAYyvHJAa7rBJ1-211" value="6" style="rounded=0;whiteSpace=wrap;html=1;fillColor=#f5f5f5;fontColor=#333333;strokeColor=#666666;" vertex="1" parent="1">
          <mxGeometry x="359" y="777" width="20" height="20" as="geometry" />
        </mxCell>
        <mxCell id="sEXIVBVAYyvHJAa7rBJ1-212" value="0" style="rounded=0;whiteSpace=wrap;html=1;dashed=1;" vertex="1" parent="1">
          <mxGeometry x="359" y="797" width="20" height="20" as="geometry" />
        </mxCell>
        <mxCell id="sEXIVBVAYyvHJAa7rBJ1-213" value="5" style="rounded=0;whiteSpace=wrap;html=1;fillColor=#f5f5f5;fontColor=#333333;strokeColor=#666666;" vertex="1" parent="1">
          <mxGeometry x="399" y="777" width="20" height="20" as="geometry" />
        </mxCell>
        <mxCell id="sEXIVBVAYyvHJAa7rBJ1-214" value="1" style="rounded=0;whiteSpace=wrap;html=1;dashed=1;" vertex="1" parent="1">
          <mxGeometry x="399" y="797" width="20" height="20" as="geometry" />
        </mxCell>
        <mxCell id="sEXIVBVAYyvHJAa7rBJ1-215" value="6" style="rounded=0;whiteSpace=wrap;html=1;fillColor=#f5f5f5;fontColor=#333333;strokeColor=#666666;" vertex="1" parent="1">
          <mxGeometry x="419" y="777" width="20" height="20" as="geometry" />
        </mxCell>
        <mxCell id="sEXIVBVAYyvHJAa7rBJ1-216" value="7" style="rounded=0;whiteSpace=wrap;html=1;fillColor=#f5f5f5;fontColor=#333333;strokeColor=#666666;" vertex="1" parent="1">
          <mxGeometry x="439" y="777" width="20" height="20" as="geometry" />
        </mxCell>
        <mxCell id="sEXIVBVAYyvHJAa7rBJ1-217" value="1" style="rounded=0;whiteSpace=wrap;html=1;dashed=1;" vertex="1" parent="1">
          <mxGeometry x="419" y="797" width="20" height="20" as="geometry" />
        </mxCell>
        <mxCell id="sEXIVBVAYyvHJAa7rBJ1-218" value="1" style="rounded=0;whiteSpace=wrap;html=1;dashed=1;" vertex="1" parent="1">
          <mxGeometry x="439" y="797" width="20" height="20" as="geometry" />
        </mxCell>
        <mxCell id="sEXIVBVAYyvHJAa7rBJ1-315" style="edgeStyle=none;rounded=0;orthogonalLoop=1;jettySize=auto;html=1;entryX=0.5;entryY=0;entryDx=0;entryDy=0;" edge="1" parent="1" source="sEXIVBVAYyvHJAa7rBJ1-219" target="sEXIVBVAYyvHJAa7rBJ1-279">
          <mxGeometry relative="1" as="geometry" />
        </mxCell>
        <mxCell id="sEXIVBVAYyvHJAa7rBJ1-219" value="sort chunks" style="rounded=1;whiteSpace=wrap;html=1;" vertex="1" parent="1">
          <mxGeometry x="782" y="687" width="70" height="60" as="geometry" />
        </mxCell>
        <mxCell id="sEXIVBVAYyvHJAa7rBJ1-221" value="1" style="rounded=0;whiteSpace=wrap;html=1;fillColor=#f5f5f5;fontColor=#333333;strokeColor=#666666;" vertex="1" parent="1">
          <mxGeometry x="852" y="777" width="20" height="20" as="geometry" />
        </mxCell>
        <mxCell id="sEXIVBVAYyvHJAa7rBJ1-222" value="2" style="rounded=0;whiteSpace=wrap;html=1;dashed=1;" vertex="1" parent="1">
          <mxGeometry x="852" y="797" width="20" height="20" as="geometry" />
        </mxCell>
        <mxCell id="sEXIVBVAYyvHJAa7rBJ1-223" value="3" style="rounded=0;whiteSpace=wrap;html=1;dashed=1;" vertex="1" parent="1">
          <mxGeometry x="972" y="797" width="20" height="20" as="geometry" />
        </mxCell>
        <mxCell id="sEXIVBVAYyvHJAa7rBJ1-224" value="2" style="rounded=0;whiteSpace=wrap;html=1;fillColor=#f5f5f5;fontColor=#333333;strokeColor=#666666;" vertex="1" parent="1">
          <mxGeometry x="972" y="777" width="20" height="20" as="geometry" />
        </mxCell>
        <mxCell id="sEXIVBVAYyvHJAa7rBJ1-225" value="3" style="rounded=0;whiteSpace=wrap;html=1;dashed=1;" vertex="1" parent="1">
          <mxGeometry x="992" y="797" width="20" height="20" as="geometry" />
        </mxCell>
        <mxCell id="sEXIVBVAYyvHJAa7rBJ1-226" value="3" style="rounded=0;whiteSpace=wrap;html=1;fillColor=#f5f5f5;fontColor=#333333;strokeColor=#666666;" vertex="1" parent="1">
          <mxGeometry x="992" y="777" width="20" height="20" as="geometry" />
        </mxCell>
        <mxCell id="sEXIVBVAYyvHJAa7rBJ1-227" value="3" style="rounded=0;whiteSpace=wrap;html=1;dashed=1;" vertex="1" parent="1">
          <mxGeometry x="952" y="797" width="20" height="20" as="geometry" />
        </mxCell>
        <mxCell id="sEXIVBVAYyvHJAa7rBJ1-228" value="0" style="rounded=0;whiteSpace=wrap;html=1;fillColor=#f5f5f5;fontColor=#333333;strokeColor=#666666;" vertex="1" parent="1">
          <mxGeometry x="952" y="777" width="20" height="20" as="geometry" />
        </mxCell>
        <mxCell id="sEXIVBVAYyvHJAa7rBJ1-229" value="3" style="rounded=0;whiteSpace=wrap;html=1;fillColor=#f5f5f5;fontColor=#333333;strokeColor=#666666;" vertex="1" parent="1">
          <mxGeometry x="872" y="777" width="20" height="20" as="geometry" />
        </mxCell>
        <mxCell id="sEXIVBVAYyvHJAa7rBJ1-230" value="2" style="rounded=0;whiteSpace=wrap;html=1;dashed=1;" vertex="1" parent="1">
          <mxGeometry x="872" y="797" width="20" height="20" as="geometry" />
        </mxCell>
        <mxCell id="sEXIVBVAYyvHJAa7rBJ1-231" value="4" style="rounded=0;whiteSpace=wrap;html=1;fillColor=#f5f5f5;fontColor=#333333;strokeColor=#666666;" vertex="1" parent="1">
          <mxGeometry x="892" y="777" width="20" height="20" as="geometry" />
        </mxCell>
        <mxCell id="sEXIVBVAYyvHJAa7rBJ1-232" value="2" style="rounded=0;whiteSpace=wrap;html=1;dashed=1;" vertex="1" parent="1">
          <mxGeometry x="892" y="797" width="20" height="20" as="geometry" />
        </mxCell>
        <mxCell id="sEXIVBVAYyvHJAa7rBJ1-233" value="5" style="rounded=0;whiteSpace=wrap;html=1;fillColor=#f5f5f5;fontColor=#333333;strokeColor=#666666;" vertex="1" parent="1">
          <mxGeometry x="912" y="777" width="20" height="20" as="geometry" />
        </mxCell>
        <mxCell id="sEXIVBVAYyvHJAa7rBJ1-234" value="2" style="rounded=0;whiteSpace=wrap;html=1;dashed=1;" vertex="1" parent="1">
          <mxGeometry x="912" y="797" width="20" height="20" as="geometry" />
        </mxCell>
        <mxCell id="sEXIVBVAYyvHJAa7rBJ1-235" value="7" style="rounded=0;whiteSpace=wrap;html=1;fillColor=#f5f5f5;fontColor=#333333;strokeColor=#666666;" vertex="1" parent="1">
          <mxGeometry x="932" y="777" width="20" height="20" as="geometry" />
        </mxCell>
        <mxCell id="sEXIVBVAYyvHJAa7rBJ1-236" value="2" style="rounded=0;whiteSpace=wrap;html=1;dashed=1;" vertex="1" parent="1">
          <mxGeometry x="932" y="797" width="20" height="20" as="geometry" />
        </mxCell>
        <mxCell id="sEXIVBVAYyvHJAa7rBJ1-237" value="4" style="rounded=0;whiteSpace=wrap;html=1;fillColor=#f5f5f5;fontColor=#333333;strokeColor=#666666;" vertex="1" parent="1">
          <mxGeometry x="1012" y="777" width="20" height="20" as="geometry" />
        </mxCell>
        <mxCell id="sEXIVBVAYyvHJAa7rBJ1-238" value="3" style="rounded=0;whiteSpace=wrap;html=1;dashed=1;" vertex="1" parent="1">
          <mxGeometry x="1012" y="797" width="20" height="20" as="geometry" />
        </mxCell>
        <mxCell id="sEXIVBVAYyvHJAa7rBJ1-244" style="edgeStyle=none;rounded=0;orthogonalLoop=1;jettySize=auto;html=1;entryX=0.5;entryY=0;entryDx=0;entryDy=0;" edge="1" parent="1" source="sEXIVBVAYyvHJAa7rBJ1-240" target="sEXIVBVAYyvHJAa7rBJ1-242">
          <mxGeometry relative="1" as="geometry" />
        </mxCell>
        <mxCell id="sEXIVBVAYyvHJAa7rBJ1-240" value="split" style="rounded=1;whiteSpace=wrap;html=1;" vertex="1" parent="1">
          <mxGeometry x="239" y="847" width="70" height="30" as="geometry" />
        </mxCell>
        <mxCell id="sEXIVBVAYyvHJAa7rBJ1-261" style="edgeStyle=none;rounded=0;orthogonalLoop=1;jettySize=auto;html=1;" edge="1" parent="1" source="sEXIVBVAYyvHJAa7rBJ1-242" target="sEXIVBVAYyvHJAa7rBJ1-260">
          <mxGeometry relative="1" as="geometry" />
        </mxCell>
        <mxCell id="sEXIVBVAYyvHJAa7rBJ1-242" value="MLP of expert 0" style="rounded=1;whiteSpace=wrap;html=1;" vertex="1" parent="1">
          <mxGeometry x="169" y="987" width="70" height="70" as="geometry" />
        </mxCell>
        <mxCell id="sEXIVBVAYyvHJAa7rBJ1-262" style="edgeStyle=none;rounded=0;orthogonalLoop=1;jettySize=auto;html=1;" edge="1" parent="1" source="sEXIVBVAYyvHJAa7rBJ1-243" target="sEXIVBVAYyvHJAa7rBJ1-260">
          <mxGeometry relative="1" as="geometry" />
        </mxCell>
        <mxCell id="sEXIVBVAYyvHJAa7rBJ1-243" value="MLP of expert 1" style="rounded=1;whiteSpace=wrap;html=1;" vertex="1" parent="1">
          <mxGeometry x="334" y="987" width="70" height="70" as="geometry" />
        </mxCell>
        <mxCell id="sEXIVBVAYyvHJAa7rBJ1-245" style="edgeStyle=none;rounded=0;orthogonalLoop=1;jettySize=auto;html=1;entryX=0.886;entryY=0.036;entryDx=0;entryDy=0;entryPerimeter=0;" edge="1" parent="1" source="sEXIVBVAYyvHJAa7rBJ1-240" target="sEXIVBVAYyvHJAa7rBJ1-243">
          <mxGeometry relative="1" as="geometry" />
        </mxCell>
        <mxCell id="sEXIVBVAYyvHJAa7rBJ1-246" value="2" style="rounded=0;whiteSpace=wrap;html=1;fillColor=#f5f5f5;fontColor=#333333;strokeColor=#666666;" vertex="1" parent="1">
          <mxGeometry x="189" y="897" width="20" height="20" as="geometry" />
        </mxCell>
        <mxCell id="sEXIVBVAYyvHJAa7rBJ1-247" value="0" style="rounded=0;whiteSpace=wrap;html=1;dashed=1;" vertex="1" parent="1">
          <mxGeometry x="189" y="917" width="20" height="20" as="geometry" />
        </mxCell>
        <mxCell id="sEXIVBVAYyvHJAa7rBJ1-248" value="0" style="rounded=0;whiteSpace=wrap;html=1;dashed=1;" vertex="1" parent="1">
          <mxGeometry x="169" y="917" width="20" height="20" as="geometry" />
        </mxCell>
        <mxCell id="sEXIVBVAYyvHJAa7rBJ1-249" value="1" style="rounded=0;whiteSpace=wrap;html=1;fillColor=#f5f5f5;fontColor=#333333;strokeColor=#666666;" vertex="1" parent="1">
          <mxGeometry x="169" y="897" width="20" height="20" as="geometry" />
        </mxCell>
        <mxCell id="sEXIVBVAYyvHJAa7rBJ1-250" value="6" style="rounded=0;whiteSpace=wrap;html=1;fillColor=#f5f5f5;fontColor=#333333;strokeColor=#666666;" vertex="1" parent="1">
          <mxGeometry x="209" y="897" width="20" height="20" as="geometry" />
        </mxCell>
        <mxCell id="sEXIVBVAYyvHJAa7rBJ1-251" value="0" style="rounded=0;whiteSpace=wrap;html=1;dashed=1;" vertex="1" parent="1">
          <mxGeometry x="209" y="917" width="20" height="20" as="geometry" />
        </mxCell>
        <mxCell id="sEXIVBVAYyvHJAa7rBJ1-252" value="0" style="rounded=0;whiteSpace=wrap;html=1;fillColor=#f5f5f5;fontColor=#333333;strokeColor=#666666;" vertex="1" parent="1">
          <mxGeometry x="363" y="896" width="20" height="20" as="geometry" />
        </mxCell>
        <mxCell id="sEXIVBVAYyvHJAa7rBJ1-253" value="1" style="rounded=0;whiteSpace=wrap;html=1;dashed=1;" vertex="1" parent="1">
          <mxGeometry x="363" y="916" width="20" height="20" as="geometry" />
        </mxCell>
        <mxCell id="sEXIVBVAYyvHJAa7rBJ1-254" value="5" style="rounded=0;whiteSpace=wrap;html=1;fillColor=#f5f5f5;fontColor=#333333;strokeColor=#666666;" vertex="1" parent="1">
          <mxGeometry x="383" y="896" width="20" height="20" as="geometry" />
        </mxCell>
        <mxCell id="sEXIVBVAYyvHJAa7rBJ1-255" value="1" style="rounded=0;whiteSpace=wrap;html=1;dashed=1;" vertex="1" parent="1">
          <mxGeometry x="383" y="916" width="20" height="20" as="geometry" />
        </mxCell>
        <mxCell id="sEXIVBVAYyvHJAa7rBJ1-256" value="6" style="rounded=0;whiteSpace=wrap;html=1;fillColor=#f5f5f5;fontColor=#333333;strokeColor=#666666;" vertex="1" parent="1">
          <mxGeometry x="403" y="896" width="20" height="20" as="geometry" />
        </mxCell>
        <mxCell id="sEXIVBVAYyvHJAa7rBJ1-257" value="7" style="rounded=0;whiteSpace=wrap;html=1;fillColor=#f5f5f5;fontColor=#333333;strokeColor=#666666;" vertex="1" parent="1">
          <mxGeometry x="423" y="896" width="20" height="20" as="geometry" />
        </mxCell>
        <mxCell id="sEXIVBVAYyvHJAa7rBJ1-258" value="1" style="rounded=0;whiteSpace=wrap;html=1;dashed=1;" vertex="1" parent="1">
          <mxGeometry x="403" y="916" width="20" height="20" as="geometry" />
        </mxCell>
        <mxCell id="sEXIVBVAYyvHJAa7rBJ1-259" value="1" style="rounded=0;whiteSpace=wrap;html=1;dashed=1;" vertex="1" parent="1">
          <mxGeometry x="423" y="916" width="20" height="20" as="geometry" />
        </mxCell>
        <mxCell id="sEXIVBVAYyvHJAa7rBJ1-354" style="edgeStyle=none;rounded=0;orthogonalLoop=1;jettySize=auto;html=1;entryX=0.5;entryY=0;entryDx=0;entryDy=0;" edge="1" parent="1" source="sEXIVBVAYyvHJAa7rBJ1-260" target="sEXIVBVAYyvHJAa7rBJ1-353">
          <mxGeometry relative="1" as="geometry" />
        </mxCell>
        <mxCell id="sEXIVBVAYyvHJAa7rBJ1-260" value="cat" style="rounded=1;whiteSpace=wrap;html=1;" vertex="1" parent="1">
          <mxGeometry x="259" y="1177" width="70" height="30" as="geometry" />
        </mxCell>
        <mxCell id="sEXIVBVAYyvHJAa7rBJ1-263" value="2" style="rounded=0;whiteSpace=wrap;html=1;fillColor=#dae8fc;strokeColor=#6c8ebf;" vertex="1" parent="1">
          <mxGeometry x="199" y="1117" width="20" height="20" as="geometry" />
        </mxCell>
        <mxCell id="sEXIVBVAYyvHJAa7rBJ1-264" value="0" style="rounded=0;whiteSpace=wrap;html=1;dashed=1;" vertex="1" parent="1">
          <mxGeometry x="199" y="1137" width="20" height="20" as="geometry" />
        </mxCell>
        <mxCell id="sEXIVBVAYyvHJAa7rBJ1-265" value="0" style="rounded=0;whiteSpace=wrap;html=1;dashed=1;" vertex="1" parent="1">
          <mxGeometry x="179" y="1137" width="20" height="20" as="geometry" />
        </mxCell>
        <mxCell id="sEXIVBVAYyvHJAa7rBJ1-266" value="1" style="rounded=0;whiteSpace=wrap;html=1;fillColor=#dae8fc;strokeColor=#6c8ebf;" vertex="1" parent="1">
          <mxGeometry x="179" y="1117" width="20" height="20" as="geometry" />
        </mxCell>
        <mxCell id="sEXIVBVAYyvHJAa7rBJ1-267" value="6" style="rounded=0;whiteSpace=wrap;html=1;fillColor=#dae8fc;strokeColor=#6c8ebf;" vertex="1" parent="1">
          <mxGeometry x="219" y="1117" width="20" height="20" as="geometry" />
        </mxCell>
        <mxCell id="sEXIVBVAYyvHJAa7rBJ1-268" value="0" style="rounded=0;whiteSpace=wrap;html=1;dashed=1;" vertex="1" parent="1">
          <mxGeometry x="219" y="1137" width="20" height="20" as="geometry" />
        </mxCell>
        <mxCell id="sEXIVBVAYyvHJAa7rBJ1-269" value="0" style="rounded=0;whiteSpace=wrap;html=1;fillColor=#dae8fc;strokeColor=#6c8ebf;" vertex="1" parent="1">
          <mxGeometry x="363" y="1260" width="20" height="20" as="geometry" />
        </mxCell>
        <mxCell id="sEXIVBVAYyvHJAa7rBJ1-270" value="1" style="rounded=0;whiteSpace=wrap;html=1;dashed=1;" vertex="1" parent="1">
          <mxGeometry x="363" y="1280" width="20" height="20" as="geometry" />
        </mxCell>
        <mxCell id="sEXIVBVAYyvHJAa7rBJ1-271" value="5" style="rounded=0;whiteSpace=wrap;html=1;fillColor=#dae8fc;strokeColor=#6c8ebf;" vertex="1" parent="1">
          <mxGeometry x="383" y="1260" width="20" height="20" as="geometry" />
        </mxCell>
        <mxCell id="sEXIVBVAYyvHJAa7rBJ1-272" value="1" style="rounded=0;whiteSpace=wrap;html=1;dashed=1;" vertex="1" parent="1">
          <mxGeometry x="383" y="1280" width="20" height="20" as="geometry" />
        </mxCell>
        <mxCell id="sEXIVBVAYyvHJAa7rBJ1-273" value="6" style="rounded=0;whiteSpace=wrap;html=1;fillColor=#dae8fc;strokeColor=#6c8ebf;" vertex="1" parent="1">
          <mxGeometry x="403" y="1260" width="20" height="20" as="geometry" />
        </mxCell>
        <mxCell id="sEXIVBVAYyvHJAa7rBJ1-274" value="7" style="rounded=0;whiteSpace=wrap;html=1;fillColor=#dae8fc;strokeColor=#6c8ebf;" vertex="1" parent="1">
          <mxGeometry x="423" y="1260" width="20" height="20" as="geometry" />
        </mxCell>
        <mxCell id="sEXIVBVAYyvHJAa7rBJ1-275" value="1" style="rounded=0;whiteSpace=wrap;html=1;dashed=1;" vertex="1" parent="1">
          <mxGeometry x="403" y="1280" width="20" height="20" as="geometry" />
        </mxCell>
        <mxCell id="sEXIVBVAYyvHJAa7rBJ1-276" value="1" style="rounded=0;whiteSpace=wrap;html=1;dashed=1;" vertex="1" parent="1">
          <mxGeometry x="423" y="1280" width="20" height="20" as="geometry" />
        </mxCell>
        <mxCell id="sEXIVBVAYyvHJAa7rBJ1-277" value="蓝色代表经过了MLP计算" style="text;html=1;align=center;verticalAlign=middle;resizable=0;points=[];autosize=1;strokeColor=none;fillColor=none;" vertex="1" parent="1">
          <mxGeometry x="9" y="1112" width="160" height="30" as="geometry" />
        </mxCell>
        <mxCell id="sEXIVBVAYyvHJAa7rBJ1-278" style="edgeStyle=none;rounded=0;orthogonalLoop=1;jettySize=auto;html=1;entryX=0.5;entryY=0;entryDx=0;entryDy=0;" edge="1" parent="1" source="sEXIVBVAYyvHJAa7rBJ1-279" target="sEXIVBVAYyvHJAa7rBJ1-281">
          <mxGeometry relative="1" as="geometry" />
        </mxCell>
        <mxCell id="sEXIVBVAYyvHJAa7rBJ1-279" value="split" style="rounded=1;whiteSpace=wrap;html=1;" vertex="1" parent="1">
          <mxGeometry x="782" y="860" width="70" height="30" as="geometry" />
        </mxCell>
        <mxCell id="sEXIVBVAYyvHJAa7rBJ1-280" style="edgeStyle=none;rounded=0;orthogonalLoop=1;jettySize=auto;html=1;" edge="1" parent="1" source="sEXIVBVAYyvHJAa7rBJ1-281" target="sEXIVBVAYyvHJAa7rBJ1-299">
          <mxGeometry relative="1" as="geometry" />
        </mxCell>
        <mxCell id="sEXIVBVAYyvHJAa7rBJ1-281" value="MLP of expert 2" style="rounded=1;whiteSpace=wrap;html=1;" vertex="1" parent="1">
          <mxGeometry x="712" y="1000" width="70" height="70" as="geometry" />
        </mxCell>
        <mxCell id="sEXIVBVAYyvHJAa7rBJ1-282" style="edgeStyle=none;rounded=0;orthogonalLoop=1;jettySize=auto;html=1;" edge="1" parent="1" source="sEXIVBVAYyvHJAa7rBJ1-283" target="sEXIVBVAYyvHJAa7rBJ1-299">
          <mxGeometry relative="1" as="geometry" />
        </mxCell>
        <mxCell id="sEXIVBVAYyvHJAa7rBJ1-283" value="MLP of expert 3" style="rounded=1;whiteSpace=wrap;html=1;" vertex="1" parent="1">
          <mxGeometry x="877" y="1000" width="70" height="70" as="geometry" />
        </mxCell>
        <mxCell id="sEXIVBVAYyvHJAa7rBJ1-284" style="edgeStyle=none;rounded=0;orthogonalLoop=1;jettySize=auto;html=1;entryX=0.886;entryY=0.036;entryDx=0;entryDy=0;entryPerimeter=0;" edge="1" parent="1" source="sEXIVBVAYyvHJAa7rBJ1-279" target="sEXIVBVAYyvHJAa7rBJ1-283">
          <mxGeometry relative="1" as="geometry" />
        </mxCell>
        <mxCell id="sEXIVBVAYyvHJAa7rBJ1-362" style="edgeStyle=none;rounded=0;orthogonalLoop=1;jettySize=auto;html=1;entryX=0.5;entryY=0;entryDx=0;entryDy=0;" edge="1" parent="1" source="sEXIVBVAYyvHJAa7rBJ1-299" target="sEXIVBVAYyvHJAa7rBJ1-361">
          <mxGeometry relative="1" as="geometry" />
        </mxCell>
        <mxCell id="sEXIVBVAYyvHJAa7rBJ1-299" value="cat" style="rounded=1;whiteSpace=wrap;html=1;" vertex="1" parent="1">
          <mxGeometry x="792" y="1190" width="70" height="30" as="geometry" />
        </mxCell>
        <mxCell id="sEXIVBVAYyvHJAa7rBJ1-316" value="1" style="rounded=0;whiteSpace=wrap;html=1;fillColor=#f5f5f5;fontColor=#333333;strokeColor=#666666;" vertex="1" parent="1">
          <mxGeometry x="669" y="916" width="20" height="20" as="geometry" />
        </mxCell>
        <mxCell id="sEXIVBVAYyvHJAa7rBJ1-317" value="2" style="rounded=0;whiteSpace=wrap;html=1;dashed=1;" vertex="1" parent="1">
          <mxGeometry x="669" y="936" width="20" height="20" as="geometry" />
        </mxCell>
        <mxCell id="sEXIVBVAYyvHJAa7rBJ1-318" value="3" style="rounded=0;whiteSpace=wrap;html=1;fillColor=#f5f5f5;fontColor=#333333;strokeColor=#666666;" vertex="1" parent="1">
          <mxGeometry x="689" y="916" width="20" height="20" as="geometry" />
        </mxCell>
        <mxCell id="sEXIVBVAYyvHJAa7rBJ1-319" value="2" style="rounded=0;whiteSpace=wrap;html=1;dashed=1;" vertex="1" parent="1">
          <mxGeometry x="689" y="936" width="20" height="20" as="geometry" />
        </mxCell>
        <mxCell id="sEXIVBVAYyvHJAa7rBJ1-320" value="4" style="rounded=0;whiteSpace=wrap;html=1;fillColor=#f5f5f5;fontColor=#333333;strokeColor=#666666;" vertex="1" parent="1">
          <mxGeometry x="709" y="916" width="20" height="20" as="geometry" />
        </mxCell>
        <mxCell id="sEXIVBVAYyvHJAa7rBJ1-321" value="2" style="rounded=0;whiteSpace=wrap;html=1;dashed=1;" vertex="1" parent="1">
          <mxGeometry x="709" y="936" width="20" height="20" as="geometry" />
        </mxCell>
        <mxCell id="sEXIVBVAYyvHJAa7rBJ1-322" value="5" style="rounded=0;whiteSpace=wrap;html=1;fillColor=#f5f5f5;fontColor=#333333;strokeColor=#666666;" vertex="1" parent="1">
          <mxGeometry x="729" y="916" width="20" height="20" as="geometry" />
        </mxCell>
        <mxCell id="sEXIVBVAYyvHJAa7rBJ1-323" value="2" style="rounded=0;whiteSpace=wrap;html=1;dashed=1;" vertex="1" parent="1">
          <mxGeometry x="729" y="936" width="20" height="20" as="geometry" />
        </mxCell>
        <mxCell id="sEXIVBVAYyvHJAa7rBJ1-324" value="7" style="rounded=0;whiteSpace=wrap;html=1;fillColor=#f5f5f5;fontColor=#333333;strokeColor=#666666;" vertex="1" parent="1">
          <mxGeometry x="749" y="916" width="20" height="20" as="geometry" />
        </mxCell>
        <mxCell id="sEXIVBVAYyvHJAa7rBJ1-325" value="2" style="rounded=0;whiteSpace=wrap;html=1;dashed=1;" vertex="1" parent="1">
          <mxGeometry x="749" y="936" width="20" height="20" as="geometry" />
        </mxCell>
        <mxCell id="sEXIVBVAYyvHJAa7rBJ1-326" value="3" style="rounded=0;whiteSpace=wrap;html=1;dashed=1;" vertex="1" parent="1">
          <mxGeometry x="929" y="946" width="20" height="20" as="geometry" />
        </mxCell>
        <mxCell id="sEXIVBVAYyvHJAa7rBJ1-327" value="2" style="rounded=0;whiteSpace=wrap;html=1;fillColor=#f5f5f5;fontColor=#333333;strokeColor=#666666;" vertex="1" parent="1">
          <mxGeometry x="929" y="926" width="20" height="20" as="geometry" />
        </mxCell>
        <mxCell id="sEXIVBVAYyvHJAa7rBJ1-328" value="3" style="rounded=0;whiteSpace=wrap;html=1;dashed=1;" vertex="1" parent="1">
          <mxGeometry x="949" y="946" width="20" height="20" as="geometry" />
        </mxCell>
        <mxCell id="sEXIVBVAYyvHJAa7rBJ1-329" value="3" style="rounded=0;whiteSpace=wrap;html=1;fillColor=#f5f5f5;fontColor=#333333;strokeColor=#666666;" vertex="1" parent="1">
          <mxGeometry x="949" y="926" width="20" height="20" as="geometry" />
        </mxCell>
        <mxCell id="sEXIVBVAYyvHJAa7rBJ1-330" value="3" style="rounded=0;whiteSpace=wrap;html=1;dashed=1;" vertex="1" parent="1">
          <mxGeometry x="909" y="946" width="20" height="20" as="geometry" />
        </mxCell>
        <mxCell id="sEXIVBVAYyvHJAa7rBJ1-331" value="0" style="rounded=0;whiteSpace=wrap;html=1;fillColor=#f5f5f5;fontColor=#333333;strokeColor=#666666;" vertex="1" parent="1">
          <mxGeometry x="909" y="926" width="20" height="20" as="geometry" />
        </mxCell>
        <mxCell id="sEXIVBVAYyvHJAa7rBJ1-332" value="4" style="rounded=0;whiteSpace=wrap;html=1;fillColor=#f5f5f5;fontColor=#333333;strokeColor=#666666;" vertex="1" parent="1">
          <mxGeometry x="969" y="926" width="20" height="20" as="geometry" />
        </mxCell>
        <mxCell id="sEXIVBVAYyvHJAa7rBJ1-333" value="3" style="rounded=0;whiteSpace=wrap;html=1;dashed=1;" vertex="1" parent="1">
          <mxGeometry x="969" y="946" width="20" height="20" as="geometry" />
        </mxCell>
        <mxCell id="sEXIVBVAYyvHJAa7rBJ1-334" value="1" style="rounded=0;whiteSpace=wrap;html=1;fillColor=#dae8fc;strokeColor=#6c8ebf;" vertex="1" parent="1">
          <mxGeometry x="664" y="1095" width="20" height="20" as="geometry" />
        </mxCell>
        <mxCell id="sEXIVBVAYyvHJAa7rBJ1-335" value="2" style="rounded=0;whiteSpace=wrap;html=1;dashed=1;" vertex="1" parent="1">
          <mxGeometry x="664" y="1115" width="20" height="20" as="geometry" />
        </mxCell>
        <mxCell id="sEXIVBVAYyvHJAa7rBJ1-336" value="3" style="rounded=0;whiteSpace=wrap;html=1;fillColor=#dae8fc;strokeColor=#6c8ebf;" vertex="1" parent="1">
          <mxGeometry x="684" y="1095" width="20" height="20" as="geometry" />
        </mxCell>
        <mxCell id="sEXIVBVAYyvHJAa7rBJ1-337" value="2" style="rounded=0;whiteSpace=wrap;html=1;dashed=1;" vertex="1" parent="1">
          <mxGeometry x="684" y="1115" width="20" height="20" as="geometry" />
        </mxCell>
        <mxCell id="sEXIVBVAYyvHJAa7rBJ1-338" value="4" style="rounded=0;whiteSpace=wrap;html=1;fillColor=#dae8fc;strokeColor=#6c8ebf;" vertex="1" parent="1">
          <mxGeometry x="704" y="1095" width="20" height="20" as="geometry" />
        </mxCell>
        <mxCell id="sEXIVBVAYyvHJAa7rBJ1-339" value="2" style="rounded=0;whiteSpace=wrap;html=1;dashed=1;" vertex="1" parent="1">
          <mxGeometry x="704" y="1115" width="20" height="20" as="geometry" />
        </mxCell>
        <mxCell id="sEXIVBVAYyvHJAa7rBJ1-340" value="5" style="rounded=0;whiteSpace=wrap;html=1;fillColor=#dae8fc;strokeColor=#6c8ebf;" vertex="1" parent="1">
          <mxGeometry x="724" y="1095" width="20" height="20" as="geometry" />
        </mxCell>
        <mxCell id="sEXIVBVAYyvHJAa7rBJ1-341" value="2" style="rounded=0;whiteSpace=wrap;html=1;dashed=1;" vertex="1" parent="1">
          <mxGeometry x="724" y="1115" width="20" height="20" as="geometry" />
        </mxCell>
        <mxCell id="sEXIVBVAYyvHJAa7rBJ1-342" value="7" style="rounded=0;whiteSpace=wrap;html=1;fillColor=#dae8fc;strokeColor=#6c8ebf;" vertex="1" parent="1">
          <mxGeometry x="744" y="1095" width="20" height="20" as="geometry" />
        </mxCell>
        <mxCell id="sEXIVBVAYyvHJAa7rBJ1-343" value="2" style="rounded=0;whiteSpace=wrap;html=1;dashed=1;" vertex="1" parent="1">
          <mxGeometry x="744" y="1115" width="20" height="20" as="geometry" />
        </mxCell>
        <mxCell id="sEXIVBVAYyvHJAa7rBJ1-344" value="3" style="rounded=0;whiteSpace=wrap;html=1;dashed=1;" vertex="1" parent="1">
          <mxGeometry x="964" y="1290" width="20" height="20" as="geometry" />
        </mxCell>
        <mxCell id="sEXIVBVAYyvHJAa7rBJ1-345" value="2" style="rounded=0;whiteSpace=wrap;html=1;fillColor=#dae8fc;strokeColor=#6c8ebf;" vertex="1" parent="1">
          <mxGeometry x="964" y="1270" width="20" height="20" as="geometry" />
        </mxCell>
        <mxCell id="sEXIVBVAYyvHJAa7rBJ1-346" value="3" style="rounded=0;whiteSpace=wrap;html=1;dashed=1;" vertex="1" parent="1">
          <mxGeometry x="984" y="1290" width="20" height="20" as="geometry" />
        </mxCell>
        <mxCell id="sEXIVBVAYyvHJAa7rBJ1-347" value="3" style="rounded=0;whiteSpace=wrap;html=1;fillColor=#dae8fc;strokeColor=#6c8ebf;" vertex="1" parent="1">
          <mxGeometry x="984" y="1270" width="20" height="20" as="geometry" />
        </mxCell>
        <mxCell id="sEXIVBVAYyvHJAa7rBJ1-348" value="3" style="rounded=0;whiteSpace=wrap;html=1;dashed=1;" vertex="1" parent="1">
          <mxGeometry x="944" y="1290" width="20" height="20" as="geometry" />
        </mxCell>
        <mxCell id="sEXIVBVAYyvHJAa7rBJ1-349" value="0" style="rounded=0;whiteSpace=wrap;html=1;fillColor=#dae8fc;strokeColor=#6c8ebf;" vertex="1" parent="1">
          <mxGeometry x="944" y="1270" width="20" height="20" as="geometry" />
        </mxCell>
        <mxCell id="sEXIVBVAYyvHJAa7rBJ1-350" value="4" style="rounded=0;whiteSpace=wrap;html=1;fillColor=#dae8fc;strokeColor=#6c8ebf;" vertex="1" parent="1">
          <mxGeometry x="1004" y="1270" width="20" height="20" as="geometry" />
        </mxCell>
        <mxCell id="sEXIVBVAYyvHJAa7rBJ1-351" value="3" style="rounded=0;whiteSpace=wrap;html=1;dashed=1;" vertex="1" parent="1">
          <mxGeometry x="1004" y="1290" width="20" height="20" as="geometry" />
        </mxCell>
        <mxCell id="sEXIVBVAYyvHJAa7rBJ1-408" style="edgeStyle=none;rounded=0;orthogonalLoop=1;jettySize=auto;html=1;entryX=0.5;entryY=0;entryDx=0;entryDy=0;" edge="1" parent="1" source="sEXIVBVAYyvHJAa7rBJ1-353" target="sEXIVBVAYyvHJAa7rBJ1-406">
          <mxGeometry relative="1" as="geometry" />
        </mxCell>
        <mxCell id="sEXIVBVAYyvHJAa7rBJ1-353" value="reverse operation of &quot;sort chunks&quot;" style="rounded=1;whiteSpace=wrap;html=1;" vertex="1" parent="1">
          <mxGeometry x="259" y="1340" width="70" height="60" as="geometry" />
        </mxCell>
        <mxCell id="sEXIVBVAYyvHJAa7rBJ1-355" value="2" style="rounded=0;whiteSpace=wrap;html=1;fillColor=#dae8fc;strokeColor=#6c8ebf;" vertex="1" parent="1">
          <mxGeometry x="323" y="1260" width="20" height="20" as="geometry" />
        </mxCell>
        <mxCell id="sEXIVBVAYyvHJAa7rBJ1-356" value="0" style="rounded=0;whiteSpace=wrap;html=1;dashed=1;" vertex="1" parent="1">
          <mxGeometry x="323" y="1280" width="20" height="20" as="geometry" />
        </mxCell>
        <mxCell id="sEXIVBVAYyvHJAa7rBJ1-357" value="0" style="rounded=0;whiteSpace=wrap;html=1;dashed=1;" vertex="1" parent="1">
          <mxGeometry x="303" y="1280" width="20" height="20" as="geometry" />
        </mxCell>
        <mxCell id="sEXIVBVAYyvHJAa7rBJ1-358" value="1" style="rounded=0;whiteSpace=wrap;html=1;fillColor=#dae8fc;strokeColor=#6c8ebf;" vertex="1" parent="1">
          <mxGeometry x="303" y="1260" width="20" height="20" as="geometry" />
        </mxCell>
        <mxCell id="sEXIVBVAYyvHJAa7rBJ1-359" value="6" style="rounded=0;whiteSpace=wrap;html=1;fillColor=#dae8fc;strokeColor=#6c8ebf;" vertex="1" parent="1">
          <mxGeometry x="343" y="1260" width="20" height="20" as="geometry" />
        </mxCell>
        <mxCell id="sEXIVBVAYyvHJAa7rBJ1-360" value="0" style="rounded=0;whiteSpace=wrap;html=1;dashed=1;" vertex="1" parent="1">
          <mxGeometry x="343" y="1280" width="20" height="20" as="geometry" />
        </mxCell>
        <mxCell id="sEXIVBVAYyvHJAa7rBJ1-409" style="edgeStyle=none;rounded=0;orthogonalLoop=1;jettySize=auto;html=1;entryX=0.5;entryY=0;entryDx=0;entryDy=0;" edge="1" parent="1" source="sEXIVBVAYyvHJAa7rBJ1-361" target="sEXIVBVAYyvHJAa7rBJ1-407">
          <mxGeometry relative="1" as="geometry" />
        </mxCell>
        <mxCell id="sEXIVBVAYyvHJAa7rBJ1-361" value="reverse operation of &quot;sort chunks&quot;" style="rounded=1;whiteSpace=wrap;html=1;" vertex="1" parent="1">
          <mxGeometry x="792" y="1340" width="70" height="60" as="geometry" />
        </mxCell>
        <mxCell id="sEXIVBVAYyvHJAa7rBJ1-363" value="1" style="rounded=0;whiteSpace=wrap;html=1;fillColor=#dae8fc;strokeColor=#6c8ebf;" vertex="1" parent="1">
          <mxGeometry x="844" y="1270" width="20" height="20" as="geometry" />
        </mxCell>
        <mxCell id="sEXIVBVAYyvHJAa7rBJ1-364" value="2" style="rounded=0;whiteSpace=wrap;html=1;dashed=1;" vertex="1" parent="1">
          <mxGeometry x="844" y="1290" width="20" height="20" as="geometry" />
        </mxCell>
        <mxCell id="sEXIVBVAYyvHJAa7rBJ1-365" value="3" style="rounded=0;whiteSpace=wrap;html=1;fillColor=#dae8fc;strokeColor=#6c8ebf;" vertex="1" parent="1">
          <mxGeometry x="864" y="1270" width="20" height="20" as="geometry" />
        </mxCell>
        <mxCell id="sEXIVBVAYyvHJAa7rBJ1-366" value="2" style="rounded=0;whiteSpace=wrap;html=1;dashed=1;" vertex="1" parent="1">
          <mxGeometry x="864" y="1290" width="20" height="20" as="geometry" />
        </mxCell>
        <mxCell id="sEXIVBVAYyvHJAa7rBJ1-367" value="4" style="rounded=0;whiteSpace=wrap;html=1;fillColor=#dae8fc;strokeColor=#6c8ebf;" vertex="1" parent="1">
          <mxGeometry x="884" y="1270" width="20" height="20" as="geometry" />
        </mxCell>
        <mxCell id="sEXIVBVAYyvHJAa7rBJ1-368" value="2" style="rounded=0;whiteSpace=wrap;html=1;dashed=1;" vertex="1" parent="1">
          <mxGeometry x="884" y="1290" width="20" height="20" as="geometry" />
        </mxCell>
        <mxCell id="sEXIVBVAYyvHJAa7rBJ1-369" value="5" style="rounded=0;whiteSpace=wrap;html=1;fillColor=#dae8fc;strokeColor=#6c8ebf;" vertex="1" parent="1">
          <mxGeometry x="904" y="1270" width="20" height="20" as="geometry" />
        </mxCell>
        <mxCell id="sEXIVBVAYyvHJAa7rBJ1-370" value="2" style="rounded=0;whiteSpace=wrap;html=1;dashed=1;" vertex="1" parent="1">
          <mxGeometry x="904" y="1290" width="20" height="20" as="geometry" />
        </mxCell>
        <mxCell id="sEXIVBVAYyvHJAa7rBJ1-371" value="7" style="rounded=0;whiteSpace=wrap;html=1;fillColor=#dae8fc;strokeColor=#6c8ebf;" vertex="1" parent="1">
          <mxGeometry x="924" y="1270" width="20" height="20" as="geometry" />
        </mxCell>
        <mxCell id="sEXIVBVAYyvHJAa7rBJ1-372" value="2" style="rounded=0;whiteSpace=wrap;html=1;dashed=1;" vertex="1" parent="1">
          <mxGeometry x="924" y="1290" width="20" height="20" as="geometry" />
        </mxCell>
        <mxCell id="sEXIVBVAYyvHJAa7rBJ1-373" value="2" style="rounded=0;whiteSpace=wrap;html=1;fillColor=#dae8fc;strokeColor=#6c8ebf;" vertex="1" parent="1">
          <mxGeometry x="329" y="1460" width="20" height="20" as="geometry" />
        </mxCell>
        <mxCell id="sEXIVBVAYyvHJAa7rBJ1-374" value="0" style="rounded=0;whiteSpace=wrap;html=1;dashed=1;" vertex="1" parent="1">
          <mxGeometry x="329" y="1480" width="20" height="20" as="geometry" />
        </mxCell>
        <mxCell id="sEXIVBVAYyvHJAa7rBJ1-375" value="0" style="rounded=0;whiteSpace=wrap;html=1;dashed=1;" vertex="1" parent="1">
          <mxGeometry x="309" y="1480" width="20" height="20" as="geometry" />
        </mxCell>
        <mxCell id="sEXIVBVAYyvHJAa7rBJ1-376" value="1" style="rounded=0;whiteSpace=wrap;html=1;fillColor=#dae8fc;strokeColor=#6c8ebf;" vertex="1" parent="1">
          <mxGeometry x="309" y="1460" width="20" height="20" as="geometry" />
        </mxCell>
        <mxCell id="sEXIVBVAYyvHJAa7rBJ1-377" value="0" style="rounded=0;whiteSpace=wrap;html=1;fillColor=#dae8fc;strokeColor=#6c8ebf;" vertex="1" parent="1">
          <mxGeometry x="349" y="1460" width="20" height="20" as="geometry" />
        </mxCell>
        <mxCell id="sEXIVBVAYyvHJAa7rBJ1-378" value="1" style="rounded=0;whiteSpace=wrap;html=1;dashed=1;" vertex="1" parent="1">
          <mxGeometry x="349" y="1480" width="20" height="20" as="geometry" />
        </mxCell>
        <mxCell id="sEXIVBVAYyvHJAa7rBJ1-379" value="6" style="rounded=0;whiteSpace=wrap;html=1;fillColor=#dae8fc;strokeColor=#6c8ebf;" vertex="1" parent="1">
          <mxGeometry x="369" y="1460" width="20" height="20" as="geometry" />
        </mxCell>
        <mxCell id="sEXIVBVAYyvHJAa7rBJ1-380" value="0" style="rounded=0;whiteSpace=wrap;html=1;dashed=1;" vertex="1" parent="1">
          <mxGeometry x="369" y="1480" width="20" height="20" as="geometry" />
        </mxCell>
        <mxCell id="sEXIVBVAYyvHJAa7rBJ1-381" value="5" style="rounded=0;whiteSpace=wrap;html=1;fillColor=#dae8fc;strokeColor=#6c8ebf;" vertex="1" parent="1">
          <mxGeometry x="389" y="1460" width="20" height="20" as="geometry" />
        </mxCell>
        <mxCell id="sEXIVBVAYyvHJAa7rBJ1-382" value="1" style="rounded=0;whiteSpace=wrap;html=1;dashed=1;" vertex="1" parent="1">
          <mxGeometry x="389" y="1480" width="20" height="20" as="geometry" />
        </mxCell>
        <mxCell id="sEXIVBVAYyvHJAa7rBJ1-383" value="6" style="rounded=0;whiteSpace=wrap;html=1;fillColor=#dae8fc;strokeColor=#6c8ebf;" vertex="1" parent="1">
          <mxGeometry x="409" y="1460" width="20" height="20" as="geometry" />
        </mxCell>
        <mxCell id="sEXIVBVAYyvHJAa7rBJ1-384" value="7" style="rounded=0;whiteSpace=wrap;html=1;fillColor=#dae8fc;strokeColor=#6c8ebf;" vertex="1" parent="1">
          <mxGeometry x="429" y="1460" width="20" height="20" as="geometry" />
        </mxCell>
        <mxCell id="sEXIVBVAYyvHJAa7rBJ1-385" value="1" style="rounded=0;whiteSpace=wrap;html=1;dashed=1;" vertex="1" parent="1">
          <mxGeometry x="409" y="1480" width="20" height="20" as="geometry" />
        </mxCell>
        <mxCell id="sEXIVBVAYyvHJAa7rBJ1-386" value="1" style="rounded=0;whiteSpace=wrap;html=1;dashed=1;" vertex="1" parent="1">
          <mxGeometry x="429" y="1480" width="20" height="20" as="geometry" />
        </mxCell>
        <mxCell id="sEXIVBVAYyvHJAa7rBJ1-388" value="1" style="rounded=0;whiteSpace=wrap;html=1;fillColor=#dae8fc;strokeColor=#6c8ebf;" vertex="1" parent="1">
          <mxGeometry x="857" y="1450" width="20" height="20" as="geometry" />
        </mxCell>
        <mxCell id="sEXIVBVAYyvHJAa7rBJ1-389" value="2" style="rounded=0;whiteSpace=wrap;html=1;dashed=1;" vertex="1" parent="1">
          <mxGeometry x="857" y="1470" width="20" height="20" as="geometry" />
        </mxCell>
        <mxCell id="sEXIVBVAYyvHJAa7rBJ1-390" value="3" style="rounded=0;whiteSpace=wrap;html=1;dashed=1;" vertex="1" parent="1">
          <mxGeometry x="917" y="1470" width="20" height="20" as="geometry" />
        </mxCell>
        <mxCell id="sEXIVBVAYyvHJAa7rBJ1-391" value="2" style="rounded=0;whiteSpace=wrap;html=1;fillColor=#dae8fc;strokeColor=#6c8ebf;" vertex="1" parent="1">
          <mxGeometry x="917" y="1450" width="20" height="20" as="geometry" />
        </mxCell>
        <mxCell id="sEXIVBVAYyvHJAa7rBJ1-392" value="3" style="rounded=0;whiteSpace=wrap;html=1;dashed=1;" vertex="1" parent="1">
          <mxGeometry x="937" y="1470" width="20" height="20" as="geometry" />
        </mxCell>
        <mxCell id="sEXIVBVAYyvHJAa7rBJ1-393" value="3" style="rounded=0;whiteSpace=wrap;html=1;fillColor=#dae8fc;strokeColor=#6c8ebf;" vertex="1" parent="1">
          <mxGeometry x="937" y="1450" width="20" height="20" as="geometry" />
        </mxCell>
        <mxCell id="sEXIVBVAYyvHJAa7rBJ1-394" value="3" style="rounded=0;whiteSpace=wrap;html=1;dashed=1;" vertex="1" parent="1">
          <mxGeometry x="897" y="1470" width="20" height="20" as="geometry" />
        </mxCell>
        <mxCell id="sEXIVBVAYyvHJAa7rBJ1-395" value="0" style="rounded=0;whiteSpace=wrap;html=1;fillColor=#dae8fc;strokeColor=#6c8ebf;" vertex="1" parent="1">
          <mxGeometry x="897" y="1450" width="20" height="20" as="geometry" />
        </mxCell>
        <mxCell id="sEXIVBVAYyvHJAa7rBJ1-396" value="3" style="rounded=0;whiteSpace=wrap;html=1;fillColor=#dae8fc;strokeColor=#6c8ebf;" vertex="1" parent="1">
          <mxGeometry x="877" y="1450" width="20" height="20" as="geometry" />
        </mxCell>
        <mxCell id="sEXIVBVAYyvHJAa7rBJ1-397" value="2" style="rounded=0;whiteSpace=wrap;html=1;dashed=1;" vertex="1" parent="1">
          <mxGeometry x="877" y="1470" width="20" height="20" as="geometry" />
        </mxCell>
        <mxCell id="sEXIVBVAYyvHJAa7rBJ1-398" value="4" style="rounded=0;whiteSpace=wrap;html=1;fillColor=#dae8fc;strokeColor=#6c8ebf;" vertex="1" parent="1">
          <mxGeometry x="957" y="1450" width="20" height="20" as="geometry" />
        </mxCell>
        <mxCell id="sEXIVBVAYyvHJAa7rBJ1-399" value="2" style="rounded=0;whiteSpace=wrap;html=1;dashed=1;" vertex="1" parent="1">
          <mxGeometry x="957" y="1470" width="20" height="20" as="geometry" />
        </mxCell>
        <mxCell id="sEXIVBVAYyvHJAa7rBJ1-400" value="5" style="rounded=0;whiteSpace=wrap;html=1;fillColor=#dae8fc;strokeColor=#6c8ebf;" vertex="1" parent="1">
          <mxGeometry x="977" y="1450" width="20" height="20" as="geometry" />
        </mxCell>
        <mxCell id="sEXIVBVAYyvHJAa7rBJ1-401" value="2" style="rounded=0;whiteSpace=wrap;html=1;dashed=1;" vertex="1" parent="1">
          <mxGeometry x="977" y="1470" width="20" height="20" as="geometry" />
        </mxCell>
        <mxCell id="sEXIVBVAYyvHJAa7rBJ1-402" value="7" style="rounded=0;whiteSpace=wrap;html=1;fillColor=#dae8fc;strokeColor=#6c8ebf;" vertex="1" parent="1">
          <mxGeometry x="997" y="1450" width="20" height="20" as="geometry" />
        </mxCell>
        <mxCell id="sEXIVBVAYyvHJAa7rBJ1-403" value="2" style="rounded=0;whiteSpace=wrap;html=1;dashed=1;" vertex="1" parent="1">
          <mxGeometry x="997" y="1470" width="20" height="20" as="geometry" />
        </mxCell>
        <mxCell id="sEXIVBVAYyvHJAa7rBJ1-404" value="4" style="rounded=0;whiteSpace=wrap;html=1;fillColor=#dae8fc;strokeColor=#6c8ebf;" vertex="1" parent="1">
          <mxGeometry x="1017" y="1450" width="20" height="20" as="geometry" />
        </mxCell>
        <mxCell id="sEXIVBVAYyvHJAa7rBJ1-405" value="3" style="rounded=0;whiteSpace=wrap;html=1;dashed=1;" vertex="1" parent="1">
          <mxGeometry x="1017" y="1470" width="20" height="20" as="geometry" />
        </mxCell>
        <mxCell id="sEXIVBVAYyvHJAa7rBJ1-412" style="edgeStyle=none;rounded=0;orthogonalLoop=1;jettySize=auto;html=1;" edge="1" parent="1" source="sEXIVBVAYyvHJAa7rBJ1-406" target="sEXIVBVAYyvHJAa7rBJ1-410">
          <mxGeometry relative="1" as="geometry" />
        </mxCell>
        <mxCell id="sEXIVBVAYyvHJAa7rBJ1-406" value="reverse operation of &quot;exchange between devices&quot;" style="rounded=1;whiteSpace=wrap;html=1;" vertex="1" parent="1">
          <mxGeometry x="259" y="1560" width="70" height="80" as="geometry" />
        </mxCell>
        <mxCell id="sEXIVBVAYyvHJAa7rBJ1-413" style="edgeStyle=none;rounded=0;orthogonalLoop=1;jettySize=auto;html=1;entryX=0.5;entryY=0;entryDx=0;entryDy=0;" edge="1" parent="1" source="sEXIVBVAYyvHJAa7rBJ1-407" target="sEXIVBVAYyvHJAa7rBJ1-411">
          <mxGeometry relative="1" as="geometry" />
        </mxCell>
        <mxCell id="sEXIVBVAYyvHJAa7rBJ1-407" value="reverse operation of &quot;exchange between devices&quot;" style="rounded=1;whiteSpace=wrap;html=1;" vertex="1" parent="1">
          <mxGeometry x="792" y="1560" width="70" height="80" as="geometry" />
        </mxCell>
        <mxCell id="sEXIVBVAYyvHJAa7rBJ1-469" style="edgeStyle=none;rounded=0;orthogonalLoop=1;jettySize=auto;html=1;entryX=0.5;entryY=0;entryDx=0;entryDy=0;" edge="1" parent="1" source="sEXIVBVAYyvHJAa7rBJ1-410" target="sEXIVBVAYyvHJAa7rBJ1-452">
          <mxGeometry relative="1" as="geometry" />
        </mxCell>
        <mxCell id="sEXIVBVAYyvHJAa7rBJ1-410" value="reverse operation of &quot;sort by expert id&quot;" style="rounded=1;whiteSpace=wrap;html=1;" vertex="1" parent="1">
          <mxGeometry x="259" y="1810" width="70" height="80" as="geometry" />
        </mxCell>
        <mxCell id="sEXIVBVAYyvHJAa7rBJ1-493" style="edgeStyle=none;rounded=0;orthogonalLoop=1;jettySize=auto;html=1;entryX=0.5;entryY=0;entryDx=0;entryDy=0;" edge="1" parent="1" source="sEXIVBVAYyvHJAa7rBJ1-411" target="sEXIVBVAYyvHJAa7rBJ1-492">
          <mxGeometry relative="1" as="geometry" />
        </mxCell>
        <mxCell id="sEXIVBVAYyvHJAa7rBJ1-411" value="reverse operation of &quot;sort by expert id&quot;" style="rounded=1;whiteSpace=wrap;html=1;" vertex="1" parent="1">
          <mxGeometry x="792" y="1810" width="70" height="80" as="geometry" />
        </mxCell>
        <mxCell id="sEXIVBVAYyvHJAa7rBJ1-414" value="2" style="rounded=0;whiteSpace=wrap;html=1;fillColor=#dae8fc;strokeColor=#6c8ebf;" vertex="1" parent="1">
          <mxGeometry x="329" y="1710" width="20" height="20" as="geometry" />
        </mxCell>
        <mxCell id="sEXIVBVAYyvHJAa7rBJ1-415" value="0" style="rounded=0;whiteSpace=wrap;html=1;dashed=1;" vertex="1" parent="1">
          <mxGeometry x="329" y="1730" width="20" height="20" as="geometry" />
        </mxCell>
        <mxCell id="sEXIVBVAYyvHJAa7rBJ1-416" value="0" style="rounded=0;whiteSpace=wrap;html=1;dashed=1;" vertex="1" parent="1">
          <mxGeometry x="309" y="1730" width="20" height="20" as="geometry" />
        </mxCell>
        <mxCell id="sEXIVBVAYyvHJAa7rBJ1-417" value="1" style="rounded=0;whiteSpace=wrap;html=1;fillColor=#dae8fc;strokeColor=#6c8ebf;" vertex="1" parent="1">
          <mxGeometry x="309" y="1710" width="20" height="20" as="geometry" />
        </mxCell>
        <mxCell id="sEXIVBVAYyvHJAa7rBJ1-418" value="0" style="rounded=0;whiteSpace=wrap;html=1;fillColor=#dae8fc;strokeColor=#6c8ebf;" vertex="1" parent="1">
          <mxGeometry x="349" y="1710" width="20" height="20" as="geometry" />
        </mxCell>
        <mxCell id="sEXIVBVAYyvHJAa7rBJ1-419" value="1" style="rounded=0;whiteSpace=wrap;html=1;dashed=1;" vertex="1" parent="1">
          <mxGeometry x="349" y="1730" width="20" height="20" as="geometry" />
        </mxCell>
        <mxCell id="sEXIVBVAYyvHJAa7rBJ1-420" value="1" style="rounded=0;whiteSpace=wrap;html=1;fillColor=#dae8fc;strokeColor=#6c8ebf;" vertex="1" parent="1">
          <mxGeometry x="369" y="1710" width="20" height="20" as="geometry" />
        </mxCell>
        <mxCell id="sEXIVBVAYyvHJAa7rBJ1-421" value="2" style="rounded=0;whiteSpace=wrap;html=1;dashed=1;" vertex="1" parent="1">
          <mxGeometry x="369" y="1730" width="20" height="20" as="geometry" />
        </mxCell>
        <mxCell id="sEXIVBVAYyvHJAa7rBJ1-422" value="3" style="rounded=0;whiteSpace=wrap;html=1;dashed=1;" vertex="1" parent="1">
          <mxGeometry x="429" y="1730" width="20" height="20" as="geometry" />
        </mxCell>
        <mxCell id="sEXIVBVAYyvHJAa7rBJ1-423" value="2" style="rounded=0;whiteSpace=wrap;html=1;fillColor=#dae8fc;strokeColor=#6c8ebf;" vertex="1" parent="1">
          <mxGeometry x="429" y="1710" width="20" height="20" as="geometry" />
        </mxCell>
        <mxCell id="sEXIVBVAYyvHJAa7rBJ1-424" value="3" style="rounded=0;whiteSpace=wrap;html=1;dashed=1;" vertex="1" parent="1">
          <mxGeometry x="449" y="1730" width="20" height="20" as="geometry" />
        </mxCell>
        <mxCell id="sEXIVBVAYyvHJAa7rBJ1-425" value="3" style="rounded=0;whiteSpace=wrap;html=1;fillColor=#dae8fc;strokeColor=#6c8ebf;" vertex="1" parent="1">
          <mxGeometry x="449" y="1710" width="20" height="20" as="geometry" />
        </mxCell>
        <mxCell id="sEXIVBVAYyvHJAa7rBJ1-426" value="3" style="rounded=0;whiteSpace=wrap;html=1;dashed=1;" vertex="1" parent="1">
          <mxGeometry x="409" y="1730" width="20" height="20" as="geometry" />
        </mxCell>
        <mxCell id="sEXIVBVAYyvHJAa7rBJ1-427" value="0" style="rounded=0;whiteSpace=wrap;html=1;fillColor=#dae8fc;strokeColor=#6c8ebf;" vertex="1" parent="1">
          <mxGeometry x="409" y="1710" width="20" height="20" as="geometry" />
        </mxCell>
        <mxCell id="sEXIVBVAYyvHJAa7rBJ1-428" value="3" style="rounded=0;whiteSpace=wrap;html=1;fillColor=#dae8fc;strokeColor=#6c8ebf;" vertex="1" parent="1">
          <mxGeometry x="389" y="1710" width="20" height="20" as="geometry" />
        </mxCell>
        <mxCell id="sEXIVBVAYyvHJAa7rBJ1-429" value="2" style="rounded=0;whiteSpace=wrap;html=1;dashed=1;" vertex="1" parent="1">
          <mxGeometry x="389" y="1730" width="20" height="20" as="geometry" />
        </mxCell>
        <mxCell id="sEXIVBVAYyvHJAa7rBJ1-430" value="6" style="rounded=0;whiteSpace=wrap;html=1;fillColor=#dae8fc;strokeColor=#6c8ebf;" vertex="1" parent="1">
          <mxGeometry x="847" y="1700" width="20" height="20" as="geometry" />
        </mxCell>
        <mxCell id="sEXIVBVAYyvHJAa7rBJ1-431" value="0" style="rounded=0;whiteSpace=wrap;html=1;dashed=1;" vertex="1" parent="1">
          <mxGeometry x="847" y="1720" width="20" height="20" as="geometry" />
        </mxCell>
        <mxCell id="sEXIVBVAYyvHJAa7rBJ1-432" value="5" style="rounded=0;whiteSpace=wrap;html=1;fillColor=#dae8fc;strokeColor=#6c8ebf;" vertex="1" parent="1">
          <mxGeometry x="867" y="1700" width="20" height="20" as="geometry" />
        </mxCell>
        <mxCell id="sEXIVBVAYyvHJAa7rBJ1-433" value="1" style="rounded=0;whiteSpace=wrap;html=1;dashed=1;" vertex="1" parent="1">
          <mxGeometry x="867" y="1720" width="20" height="20" as="geometry" />
        </mxCell>
        <mxCell id="sEXIVBVAYyvHJAa7rBJ1-434" value="6" style="rounded=0;whiteSpace=wrap;html=1;fillColor=#dae8fc;strokeColor=#6c8ebf;" vertex="1" parent="1">
          <mxGeometry x="887" y="1700" width="20" height="20" as="geometry" />
        </mxCell>
        <mxCell id="sEXIVBVAYyvHJAa7rBJ1-435" value="7" style="rounded=0;whiteSpace=wrap;html=1;fillColor=#dae8fc;strokeColor=#6c8ebf;" vertex="1" parent="1">
          <mxGeometry x="907" y="1700" width="20" height="20" as="geometry" />
        </mxCell>
        <mxCell id="sEXIVBVAYyvHJAa7rBJ1-436" value="1" style="rounded=0;whiteSpace=wrap;html=1;dashed=1;" vertex="1" parent="1">
          <mxGeometry x="887" y="1720" width="20" height="20" as="geometry" />
        </mxCell>
        <mxCell id="sEXIVBVAYyvHJAa7rBJ1-437" value="1" style="rounded=0;whiteSpace=wrap;html=1;dashed=1;" vertex="1" parent="1">
          <mxGeometry x="907" y="1720" width="20" height="20" as="geometry" />
        </mxCell>
        <mxCell id="sEXIVBVAYyvHJAa7rBJ1-438" value="4" style="rounded=0;whiteSpace=wrap;html=1;fillColor=#dae8fc;strokeColor=#6c8ebf;" vertex="1" parent="1">
          <mxGeometry x="927" y="1700" width="20" height="20" as="geometry" />
        </mxCell>
        <mxCell id="sEXIVBVAYyvHJAa7rBJ1-439" value="2" style="rounded=0;whiteSpace=wrap;html=1;dashed=1;" vertex="1" parent="1">
          <mxGeometry x="927" y="1720" width="20" height="20" as="geometry" />
        </mxCell>
        <mxCell id="sEXIVBVAYyvHJAa7rBJ1-440" value="5" style="rounded=0;whiteSpace=wrap;html=1;fillColor=#dae8fc;strokeColor=#6c8ebf;" vertex="1" parent="1">
          <mxGeometry x="947" y="1700" width="20" height="20" as="geometry" />
        </mxCell>
        <mxCell id="sEXIVBVAYyvHJAa7rBJ1-441" value="2" style="rounded=0;whiteSpace=wrap;html=1;dashed=1;" vertex="1" parent="1">
          <mxGeometry x="947" y="1720" width="20" height="20" as="geometry" />
        </mxCell>
        <mxCell id="sEXIVBVAYyvHJAa7rBJ1-442" value="7" style="rounded=0;whiteSpace=wrap;html=1;fillColor=#dae8fc;strokeColor=#6c8ebf;" vertex="1" parent="1">
          <mxGeometry x="967" y="1700" width="20" height="20" as="geometry" />
        </mxCell>
        <mxCell id="sEXIVBVAYyvHJAa7rBJ1-443" value="2" style="rounded=0;whiteSpace=wrap;html=1;dashed=1;" vertex="1" parent="1">
          <mxGeometry x="967" y="1720" width="20" height="20" as="geometry" />
        </mxCell>
        <mxCell id="sEXIVBVAYyvHJAa7rBJ1-444" value="4" style="rounded=0;whiteSpace=wrap;html=1;fillColor=#dae8fc;strokeColor=#6c8ebf;" vertex="1" parent="1">
          <mxGeometry x="987" y="1700" width="20" height="20" as="geometry" />
        </mxCell>
        <mxCell id="sEXIVBVAYyvHJAa7rBJ1-445" value="3" style="rounded=0;whiteSpace=wrap;html=1;dashed=1;" vertex="1" parent="1">
          <mxGeometry x="987" y="1720" width="20" height="20" as="geometry" />
        </mxCell>
        <mxCell id="sEXIVBVAYyvHJAa7rBJ1-446" value="" style="rounded=0;whiteSpace=wrap;html=1;dashed=1;fillColor=none;strokeColor=#0000CC;" vertex="1" parent="1">
          <mxGeometry x="369" y="1455" width="90" height="50" as="geometry" />
        </mxCell>
        <mxCell id="sEXIVBVAYyvHJAa7rBJ1-447" value="" style="rounded=0;whiteSpace=wrap;html=1;dashed=1;fillColor=none;strokeColor=#0000CC;" vertex="1" parent="1">
          <mxGeometry x="837" y="1695" width="90" height="50" as="geometry" />
        </mxCell>
        <mxCell id="sEXIVBVAYyvHJAa7rBJ1-448" style="edgeStyle=none;rounded=0;orthogonalLoop=1;jettySize=auto;html=1;entryX=-0.016;entryY=0.124;entryDx=0;entryDy=0;entryPerimeter=0;dashed=1;strokeColor=#0000CC;" edge="1" parent="1" source="sEXIVBVAYyvHJAa7rBJ1-446" target="sEXIVBVAYyvHJAa7rBJ1-447">
          <mxGeometry relative="1" as="geometry" />
        </mxCell>
        <mxCell id="sEXIVBVAYyvHJAa7rBJ1-451" style="edgeStyle=none;rounded=0;orthogonalLoop=1;jettySize=auto;html=1;entryX=1;entryY=0;entryDx=0;entryDy=0;dashed=1;fillColor=#f8cecc;strokeColor=#FF3333;" edge="1" parent="1" source="sEXIVBVAYyvHJAa7rBJ1-449" target="sEXIVBVAYyvHJAa7rBJ1-450">
          <mxGeometry relative="1" as="geometry" />
        </mxCell>
        <mxCell id="sEXIVBVAYyvHJAa7rBJ1-449" value="" style="rounded=0;whiteSpace=wrap;html=1;dashed=1;fillColor=none;strokeColor=#FF3333;" vertex="1" parent="1">
          <mxGeometry x="837" y="1445" width="120" height="60" as="geometry" />
        </mxCell>
        <mxCell id="sEXIVBVAYyvHJAa7rBJ1-450" value="" style="rounded=0;whiteSpace=wrap;html=1;dashed=1;fillColor=none;strokeColor=#FF3333;" vertex="1" parent="1">
          <mxGeometry x="369" y="1700" width="120" height="60" as="geometry" />
        </mxCell>
        <mxCell id="sEXIVBVAYyvHJAa7rBJ1-497" style="edgeStyle=none;rounded=0;orthogonalLoop=1;jettySize=auto;html=1;entryX=0.5;entryY=0;entryDx=0;entryDy=0;" edge="1" parent="1" source="sEXIVBVAYyvHJAa7rBJ1-452" target="sEXIVBVAYyvHJAa7rBJ1-495">
          <mxGeometry relative="1" as="geometry" />
        </mxCell>
        <mxCell id="sEXIVBVAYyvHJAa7rBJ1-452" value="&lt;div&gt;reverse operation of &quot;expand by&lt;/div&gt;&lt;div&gt;expert id&quot;&lt;/div&gt;" style="rounded=1;whiteSpace=wrap;html=1;" vertex="1" parent="1">
          <mxGeometry x="259" y="2033" width="70" height="70" as="geometry" />
        </mxCell>
        <mxCell id="sEXIVBVAYyvHJAa7rBJ1-455" value="0" style="rounded=0;whiteSpace=wrap;html=1;dashed=1;" vertex="1" parent="1">
          <mxGeometry x="389" y="1961" width="20" height="20" as="geometry" />
        </mxCell>
        <mxCell id="sEXIVBVAYyvHJAa7rBJ1-456" value="1" style="rounded=0;whiteSpace=wrap;html=1;fillColor=#dae8fc;strokeColor=#6c8ebf;" vertex="1" parent="1">
          <mxGeometry x="389" y="1941" width="20" height="20" as="geometry" />
        </mxCell>
        <mxCell id="sEXIVBVAYyvHJAa7rBJ1-457" value="0" style="rounded=0;whiteSpace=wrap;html=1;fillColor=#dae8fc;strokeColor=#6c8ebf;" vertex="1" parent="1">
          <mxGeometry x="329" y="1941" width="20" height="20" as="geometry" />
        </mxCell>
        <mxCell id="sEXIVBVAYyvHJAa7rBJ1-458" value="1" style="rounded=0;whiteSpace=wrap;html=1;dashed=1;" vertex="1" parent="1">
          <mxGeometry x="329" y="1961" width="20" height="20" as="geometry" />
        </mxCell>
        <mxCell id="sEXIVBVAYyvHJAa7rBJ1-461" value="3" style="rounded=0;whiteSpace=wrap;html=1;dashed=1;" vertex="1" parent="1">
          <mxGeometry x="429" y="1961" width="20" height="20" as="geometry" />
        </mxCell>
        <mxCell id="sEXIVBVAYyvHJAa7rBJ1-462" value="2" style="rounded=0;whiteSpace=wrap;html=1;fillColor=#dae8fc;strokeColor=#6c8ebf;" vertex="1" parent="1">
          <mxGeometry x="429" y="1941" width="20" height="20" as="geometry" />
        </mxCell>
        <mxCell id="sEXIVBVAYyvHJAa7rBJ1-463" value="3" style="rounded=0;whiteSpace=wrap;html=1;dashed=1;" vertex="1" parent="1">
          <mxGeometry x="469" y="1961" width="20" height="20" as="geometry" />
        </mxCell>
        <mxCell id="sEXIVBVAYyvHJAa7rBJ1-464" value="3" style="rounded=0;whiteSpace=wrap;html=1;fillColor=#dae8fc;strokeColor=#6c8ebf;" vertex="1" parent="1">
          <mxGeometry x="469" y="1941" width="20" height="20" as="geometry" />
        </mxCell>
        <mxCell id="sEXIVBVAYyvHJAa7rBJ1-465" value="3" style="rounded=0;whiteSpace=wrap;html=1;dashed=1;" vertex="1" parent="1">
          <mxGeometry x="349" y="1961" width="20" height="20" as="geometry" />
        </mxCell>
        <mxCell id="sEXIVBVAYyvHJAa7rBJ1-466" value="0" style="rounded=0;whiteSpace=wrap;html=1;fillColor=#dae8fc;strokeColor=#6c8ebf;" vertex="1" parent="1">
          <mxGeometry x="349" y="1941" width="20" height="20" as="geometry" />
        </mxCell>
        <mxCell id="sEXIVBVAYyvHJAa7rBJ1-467" value="3" style="rounded=0;whiteSpace=wrap;html=1;fillColor=#dae8fc;strokeColor=#6c8ebf;" vertex="1" parent="1">
          <mxGeometry x="449" y="1941" width="20" height="20" as="geometry" />
        </mxCell>
        <mxCell id="sEXIVBVAYyvHJAa7rBJ1-468" value="2" style="rounded=0;whiteSpace=wrap;html=1;dashed=1;" vertex="1" parent="1">
          <mxGeometry x="449" y="1961" width="20" height="20" as="geometry" />
        </mxCell>
        <mxCell id="sEXIVBVAYyvHJAa7rBJ1-472" value="1" style="rounded=0;whiteSpace=wrap;html=1;fillColor=#dae8fc;strokeColor=#6c8ebf;" vertex="1" parent="1">
          <mxGeometry x="369" y="1941" width="20" height="20" as="geometry" />
        </mxCell>
        <mxCell id="sEXIVBVAYyvHJAa7rBJ1-473" value="2" style="rounded=0;whiteSpace=wrap;html=1;dashed=1;" vertex="1" parent="1">
          <mxGeometry x="369" y="1961" width="20" height="20" as="geometry" />
        </mxCell>
        <mxCell id="sEXIVBVAYyvHJAa7rBJ1-474" value="2" style="rounded=0;whiteSpace=wrap;html=1;fillColor=#dae8fc;strokeColor=#6c8ebf;" vertex="1" parent="1">
          <mxGeometry x="409" y="1941" width="20" height="20" as="geometry" />
        </mxCell>
        <mxCell id="sEXIVBVAYyvHJAa7rBJ1-475" value="0" style="rounded=0;whiteSpace=wrap;html=1;dashed=1;" vertex="1" parent="1">
          <mxGeometry x="409" y="1961" width="20" height="20" as="geometry" />
        </mxCell>
        <mxCell id="sEXIVBVAYyvHJAa7rBJ1-476" value="4" style="rounded=0;whiteSpace=wrap;html=1;fillColor=#dae8fc;strokeColor=#6c8ebf;" vertex="1" parent="1">
          <mxGeometry x="857" y="1940" width="20" height="20" as="geometry" />
        </mxCell>
        <mxCell id="sEXIVBVAYyvHJAa7rBJ1-477" value="5" style="rounded=0;whiteSpace=wrap;html=1;fillColor=#dae8fc;strokeColor=#6c8ebf;" vertex="1" parent="1">
          <mxGeometry x="897" y="1940" width="20" height="20" as="geometry" />
        </mxCell>
        <mxCell id="sEXIVBVAYyvHJAa7rBJ1-478" value="6" style="rounded=0;whiteSpace=wrap;html=1;fillColor=#dae8fc;strokeColor=#6c8ebf;" vertex="1" parent="1">
          <mxGeometry x="937" y="1940" width="20" height="20" as="geometry" />
        </mxCell>
        <mxCell id="sEXIVBVAYyvHJAa7rBJ1-479" value="7" style="rounded=0;whiteSpace=wrap;html=1;fillColor=#dae8fc;strokeColor=#6c8ebf;" vertex="1" parent="1">
          <mxGeometry x="997" y="1940" width="20" height="20" as="geometry" />
        </mxCell>
        <mxCell id="sEXIVBVAYyvHJAa7rBJ1-480" value="4" style="rounded=0;whiteSpace=wrap;html=1;fillColor=#dae8fc;strokeColor=#6c8ebf;" vertex="1" parent="1">
          <mxGeometry x="877" y="1940" width="20" height="20" as="geometry" />
        </mxCell>
        <mxCell id="sEXIVBVAYyvHJAa7rBJ1-481" value="5" style="rounded=0;whiteSpace=wrap;html=1;fillColor=#dae8fc;strokeColor=#6c8ebf;" vertex="1" parent="1">
          <mxGeometry x="917" y="1940" width="20" height="20" as="geometry" />
        </mxCell>
        <mxCell id="sEXIVBVAYyvHJAa7rBJ1-482" value="6" style="rounded=0;whiteSpace=wrap;html=1;fillColor=#dae8fc;strokeColor=#6c8ebf;" vertex="1" parent="1">
          <mxGeometry x="957" y="1940" width="20" height="20" as="geometry" />
        </mxCell>
        <mxCell id="sEXIVBVAYyvHJAa7rBJ1-483" value="7" style="rounded=0;whiteSpace=wrap;html=1;fillColor=#dae8fc;strokeColor=#6c8ebf;" vertex="1" parent="1">
          <mxGeometry x="977" y="1940" width="20" height="20" as="geometry" />
        </mxCell>
        <mxCell id="sEXIVBVAYyvHJAa7rBJ1-484" value="2" style="rounded=0;whiteSpace=wrap;html=1;dashed=1;" vertex="1" parent="1">
          <mxGeometry x="857" y="1960" width="20" height="20" as="geometry" />
        </mxCell>
        <mxCell id="sEXIVBVAYyvHJAa7rBJ1-485" value="3" style="rounded=0;whiteSpace=wrap;html=1;dashed=1;" vertex="1" parent="1">
          <mxGeometry x="877" y="1960" width="20" height="20" as="geometry" />
        </mxCell>
        <mxCell id="sEXIVBVAYyvHJAa7rBJ1-486" value="1" style="rounded=0;whiteSpace=wrap;html=1;dashed=1;" vertex="1" parent="1">
          <mxGeometry x="897" y="1960" width="20" height="20" as="geometry" />
        </mxCell>
        <mxCell id="sEXIVBVAYyvHJAa7rBJ1-487" value="2" style="rounded=0;whiteSpace=wrap;html=1;dashed=1;" vertex="1" parent="1">
          <mxGeometry x="917" y="1960" width="20" height="20" as="geometry" />
        </mxCell>
        <mxCell id="sEXIVBVAYyvHJAa7rBJ1-488" value="0" style="rounded=0;whiteSpace=wrap;html=1;dashed=1;" vertex="1" parent="1">
          <mxGeometry x="937" y="1960" width="20" height="20" as="geometry" />
        </mxCell>
        <mxCell id="sEXIVBVAYyvHJAa7rBJ1-489" value="1" style="rounded=0;whiteSpace=wrap;html=1;dashed=1;" vertex="1" parent="1">
          <mxGeometry x="957" y="1960" width="20" height="20" as="geometry" />
        </mxCell>
        <mxCell id="sEXIVBVAYyvHJAa7rBJ1-490" value="1" style="rounded=0;whiteSpace=wrap;html=1;dashed=1;" vertex="1" parent="1">
          <mxGeometry x="977" y="1960" width="20" height="20" as="geometry" />
        </mxCell>
        <mxCell id="sEXIVBVAYyvHJAa7rBJ1-491" value="2" style="rounded=0;whiteSpace=wrap;html=1;dashed=1;" vertex="1" parent="1">
          <mxGeometry x="997" y="1960" width="20" height="20" as="geometry" />
        </mxCell>
        <mxCell id="sEXIVBVAYyvHJAa7rBJ1-498" style="edgeStyle=none;rounded=0;orthogonalLoop=1;jettySize=auto;html=1;" edge="1" parent="1" source="sEXIVBVAYyvHJAa7rBJ1-492" target="sEXIVBVAYyvHJAa7rBJ1-496">
          <mxGeometry relative="1" as="geometry" />
        </mxCell>
        <mxCell id="sEXIVBVAYyvHJAa7rBJ1-492" value="&lt;div&gt;reverse operation of &quot;expand by&lt;/div&gt;&lt;div&gt;expert id&quot;&lt;/div&gt;" style="rounded=1;whiteSpace=wrap;html=1;" vertex="1" parent="1">
          <mxGeometry x="792" y="2033" width="70" height="70" as="geometry" />
        </mxCell>
        <mxCell id="sEXIVBVAYyvHJAa7rBJ1-495" value="……" style="rounded=1;whiteSpace=wrap;html=1;" vertex="1" parent="1">
          <mxGeometry x="259" y="2260" width="70" height="30" as="geometry" />
        </mxCell>
        <mxCell id="sEXIVBVAYyvHJAa7rBJ1-496" value="……" style="rounded=1;whiteSpace=wrap;html=1;" vertex="1" parent="1">
          <mxGeometry x="792" y="2260" width="70" height="30" as="geometry" />
        </mxCell>
        <mxCell id="sEXIVBVAYyvHJAa7rBJ1-499" value="0" style="rounded=0;whiteSpace=wrap;html=1;fillColor=#dae8fc;strokeColor=#6c8ebf;" vertex="1" parent="1">
          <mxGeometry x="334" y="2120" width="20" height="20" as="geometry" />
        </mxCell>
        <mxCell id="sEXIVBVAYyvHJAa7rBJ1-500" value="1" style="rounded=0;whiteSpace=wrap;html=1;fillColor=#dae8fc;strokeColor=#6c8ebf;" vertex="1" parent="1">
          <mxGeometry x="354" y="2120" width="20" height="20" as="geometry" />
        </mxCell>
        <mxCell id="sEXIVBVAYyvHJAa7rBJ1-501" value="2" style="rounded=0;whiteSpace=wrap;html=1;fillColor=#dae8fc;strokeColor=#6c8ebf;" vertex="1" parent="1">
          <mxGeometry x="374" y="2120" width="20" height="20" as="geometry" />
        </mxCell>
        <mxCell id="sEXIVBVAYyvHJAa7rBJ1-502" value="3" style="rounded=0;whiteSpace=wrap;html=1;fillColor=#dae8fc;strokeColor=#6c8ebf;" vertex="1" parent="1">
          <mxGeometry x="394" y="2120" width="20" height="20" as="geometry" />
        </mxCell>
        <mxCell id="sEXIVBVAYyvHJAa7rBJ1-503" value="1" style="rounded=0;whiteSpace=wrap;html=1;dashed=1;" vertex="1" parent="1">
          <mxGeometry x="334" y="2140" width="20" height="20" as="geometry" />
        </mxCell>
        <mxCell id="sEXIVBVAYyvHJAa7rBJ1-504" value="2" style="rounded=0;whiteSpace=wrap;html=1;dashed=1;" vertex="1" parent="1">
          <mxGeometry x="354" y="2140" width="20" height="20" as="geometry" />
        </mxCell>
        <mxCell id="sEXIVBVAYyvHJAa7rBJ1-505" value="0" style="rounded=0;whiteSpace=wrap;html=1;dashed=1;" vertex="1" parent="1">
          <mxGeometry x="374" y="2140" width="20" height="20" as="geometry" />
        </mxCell>
        <mxCell id="sEXIVBVAYyvHJAa7rBJ1-506" value="2" style="rounded=0;whiteSpace=wrap;html=1;dashed=1;" vertex="1" parent="1">
          <mxGeometry x="394" y="2140" width="20" height="20" as="geometry" />
        </mxCell>
        <mxCell id="sEXIVBVAYyvHJAa7rBJ1-507" value="3" style="rounded=0;whiteSpace=wrap;html=1;dashed=1;" vertex="1" parent="1">
          <mxGeometry x="334" y="2200" width="20" height="20" as="geometry" />
        </mxCell>
        <mxCell id="sEXIVBVAYyvHJAa7rBJ1-508" value="0" style="rounded=0;whiteSpace=wrap;html=1;dashed=1;" vertex="1" parent="1">
          <mxGeometry x="354" y="2200" width="20" height="20" as="geometry" />
        </mxCell>
        <mxCell id="sEXIVBVAYyvHJAa7rBJ1-509" value="3" style="rounded=0;whiteSpace=wrap;html=1;dashed=1;" vertex="1" parent="1">
          <mxGeometry x="374" y="2200" width="20" height="20" as="geometry" />
        </mxCell>
        <mxCell id="sEXIVBVAYyvHJAa7rBJ1-510" value="3" style="rounded=0;whiteSpace=wrap;html=1;dashed=1;" vertex="1" parent="1">
          <mxGeometry x="394" y="2200" width="20" height="20" as="geometry" />
        </mxCell>
        <mxCell id="sEXIVBVAYyvHJAa7rBJ1-511" value="2" style="rounded=0;whiteSpace=wrap;html=1;dashed=1;" vertex="1" parent="1">
          <mxGeometry x="862" y="2140" width="20" height="20" as="geometry" />
        </mxCell>
        <mxCell id="sEXIVBVAYyvHJAa7rBJ1-512" value="1" style="rounded=0;whiteSpace=wrap;html=1;dashed=1;" vertex="1" parent="1">
          <mxGeometry x="882" y="2140" width="20" height="20" as="geometry" />
        </mxCell>
        <mxCell id="sEXIVBVAYyvHJAa7rBJ1-513" value="0" style="rounded=0;whiteSpace=wrap;html=1;dashed=1;" vertex="1" parent="1">
          <mxGeometry x="902" y="2140" width="20" height="20" as="geometry" />
        </mxCell>
        <mxCell id="sEXIVBVAYyvHJAa7rBJ1-514" value="1" style="rounded=0;whiteSpace=wrap;html=1;dashed=1;" vertex="1" parent="1">
          <mxGeometry x="922" y="2140" width="20" height="20" as="geometry" />
        </mxCell>
        <mxCell id="sEXIVBVAYyvHJAa7rBJ1-515" value="3" style="rounded=0;whiteSpace=wrap;html=1;dashed=1;" vertex="1" parent="1">
          <mxGeometry x="862" y="2200" width="20" height="20" as="geometry" />
        </mxCell>
        <mxCell id="sEXIVBVAYyvHJAa7rBJ1-516" value="2" style="rounded=0;whiteSpace=wrap;html=1;dashed=1;" vertex="1" parent="1">
          <mxGeometry x="882" y="2200" width="20" height="20" as="geometry" />
        </mxCell>
        <mxCell id="sEXIVBVAYyvHJAa7rBJ1-517" value="1" style="rounded=0;whiteSpace=wrap;html=1;dashed=1;" vertex="1" parent="1">
          <mxGeometry x="902" y="2200" width="20" height="20" as="geometry" />
        </mxCell>
        <mxCell id="sEXIVBVAYyvHJAa7rBJ1-518" value="2" style="rounded=0;whiteSpace=wrap;html=1;dashed=1;" vertex="1" parent="1">
          <mxGeometry x="922" y="2200" width="20" height="20" as="geometry" />
        </mxCell>
        <mxCell id="sEXIVBVAYyvHJAa7rBJ1-519" value="4" style="rounded=0;whiteSpace=wrap;html=1;fillColor=#dae8fc;strokeColor=#6c8ebf;" vertex="1" parent="1">
          <mxGeometry x="862" y="2120" width="20" height="20" as="geometry" />
        </mxCell>
        <mxCell id="sEXIVBVAYyvHJAa7rBJ1-520" value="5" style="rounded=0;whiteSpace=wrap;html=1;fillColor=#dae8fc;strokeColor=#6c8ebf;" vertex="1" parent="1">
          <mxGeometry x="882" y="2120" width="20" height="20" as="geometry" />
        </mxCell>
        <mxCell id="sEXIVBVAYyvHJAa7rBJ1-521" value="6" style="rounded=0;whiteSpace=wrap;html=1;fillColor=#dae8fc;strokeColor=#6c8ebf;" vertex="1" parent="1">
          <mxGeometry x="902" y="2120" width="20" height="20" as="geometry" />
        </mxCell>
        <mxCell id="sEXIVBVAYyvHJAa7rBJ1-522" value="7" style="rounded=0;whiteSpace=wrap;html=1;fillColor=#dae8fc;strokeColor=#6c8ebf;" vertex="1" parent="1">
          <mxGeometry x="922" y="2120" width="20" height="20" as="geometry" />
        </mxCell>
        <mxCell id="sEXIVBVAYyvHJAa7rBJ1-523" value="&lt;font style=&quot;font-size: 14px; color: rgb(255, 51, 51);&quot;&gt;+&lt;/font&gt;" style="text;html=1;align=center;verticalAlign=middle;resizable=0;points=[];autosize=1;strokeColor=none;fillColor=none;" vertex="1" parent="1">
          <mxGeometry x="329" y="2155" width="30" height="30" as="geometry" />
        </mxCell>
        <mxCell id="sEXIVBVAYyvHJAa7rBJ1-536" value="&lt;font style=&quot;font-size: 14px; color: rgb(255, 51, 51);&quot;&gt;+&lt;/font&gt;" style="text;html=1;align=center;verticalAlign=middle;resizable=0;points=[];autosize=1;strokeColor=none;fillColor=none;" vertex="1" parent="1">
          <mxGeometry x="349" y="2155" width="30" height="30" as="geometry" />
        </mxCell>
        <mxCell id="sEXIVBVAYyvHJAa7rBJ1-537" value="&lt;font style=&quot;font-size: 14px; color: rgb(255, 51, 51);&quot;&gt;+&lt;/font&gt;" style="text;html=1;align=center;verticalAlign=middle;resizable=0;points=[];autosize=1;strokeColor=none;fillColor=none;" vertex="1" parent="1">
          <mxGeometry x="389" y="2155" width="30" height="30" as="geometry" />
        </mxCell>
        <mxCell id="sEXIVBVAYyvHJAa7rBJ1-538" value="&lt;font style=&quot;font-size: 14px; color: rgb(255, 51, 51);&quot;&gt;+&lt;/font&gt;" style="text;html=1;align=center;verticalAlign=middle;resizable=0;points=[];autosize=1;strokeColor=none;fillColor=none;" vertex="1" parent="1">
          <mxGeometry x="369" y="2155" width="30" height="30" as="geometry" />
        </mxCell>
        <mxCell id="sEXIVBVAYyvHJAa7rBJ1-539" value="0" style="rounded=0;whiteSpace=wrap;html=1;fillColor=#dae8fc;strokeColor=#6c8ebf;" vertex="1" parent="1">
          <mxGeometry x="334" y="2180" width="20" height="20" as="geometry" />
        </mxCell>
        <mxCell id="sEXIVBVAYyvHJAa7rBJ1-540" value="1" style="rounded=0;whiteSpace=wrap;html=1;fillColor=#dae8fc;strokeColor=#6c8ebf;" vertex="1" parent="1">
          <mxGeometry x="354" y="2180" width="20" height="20" as="geometry" />
        </mxCell>
        <mxCell id="sEXIVBVAYyvHJAa7rBJ1-541" value="2" style="rounded=0;whiteSpace=wrap;html=1;fillColor=#dae8fc;strokeColor=#6c8ebf;" vertex="1" parent="1">
          <mxGeometry x="374" y="2180" width="20" height="20" as="geometry" />
        </mxCell>
        <mxCell id="sEXIVBVAYyvHJAa7rBJ1-542" value="3" style="rounded=0;whiteSpace=wrap;html=1;fillColor=#dae8fc;strokeColor=#6c8ebf;" vertex="1" parent="1">
          <mxGeometry x="394" y="2180" width="20" height="20" as="geometry" />
        </mxCell>
        <mxCell id="sEXIVBVAYyvHJAa7rBJ1-543" value="4" style="rounded=0;whiteSpace=wrap;html=1;fillColor=#dae8fc;strokeColor=#6c8ebf;" vertex="1" parent="1">
          <mxGeometry x="862" y="2180" width="20" height="20" as="geometry" />
        </mxCell>
        <mxCell id="sEXIVBVAYyvHJAa7rBJ1-544" value="5" style="rounded=0;whiteSpace=wrap;html=1;fillColor=#dae8fc;strokeColor=#6c8ebf;" vertex="1" parent="1">
          <mxGeometry x="882" y="2180" width="20" height="20" as="geometry" />
        </mxCell>
        <mxCell id="sEXIVBVAYyvHJAa7rBJ1-545" value="6" style="rounded=0;whiteSpace=wrap;html=1;fillColor=#dae8fc;strokeColor=#6c8ebf;" vertex="1" parent="1">
          <mxGeometry x="902" y="2180" width="20" height="20" as="geometry" />
        </mxCell>
        <mxCell id="sEXIVBVAYyvHJAa7rBJ1-546" value="7" style="rounded=0;whiteSpace=wrap;html=1;fillColor=#dae8fc;strokeColor=#6c8ebf;" vertex="1" parent="1">
          <mxGeometry x="922" y="2180" width="20" height="20" as="geometry" />
        </mxCell>
        <mxCell id="sEXIVBVAYyvHJAa7rBJ1-547" value="&lt;font style=&quot;font-size: 14px; color: rgb(255, 51, 51);&quot;&gt;+&lt;/font&gt;" style="text;html=1;align=center;verticalAlign=middle;resizable=0;points=[];autosize=1;strokeColor=none;fillColor=none;" vertex="1" parent="1">
          <mxGeometry x="857" y="2155" width="30" height="30" as="geometry" />
        </mxCell>
        <mxCell id="sEXIVBVAYyvHJAa7rBJ1-548" value="&lt;font style=&quot;font-size: 14px; color: rgb(255, 51, 51);&quot;&gt;+&lt;/font&gt;" style="text;html=1;align=center;verticalAlign=middle;resizable=0;points=[];autosize=1;strokeColor=none;fillColor=none;" vertex="1" parent="1">
          <mxGeometry x="877" y="2155" width="30" height="30" as="geometry" />
        </mxCell>
        <mxCell id="sEXIVBVAYyvHJAa7rBJ1-549" value="&lt;font style=&quot;font-size: 14px; color: rgb(255, 51, 51);&quot;&gt;+&lt;/font&gt;" style="text;html=1;align=center;verticalAlign=middle;resizable=0;points=[];autosize=1;strokeColor=none;fillColor=none;" vertex="1" parent="1">
          <mxGeometry x="917" y="2155" width="30" height="30" as="geometry" />
        </mxCell>
        <mxCell id="sEXIVBVAYyvHJAa7rBJ1-550" value="&lt;font style=&quot;font-size: 14px; color: rgb(255, 51, 51);&quot;&gt;+&lt;/font&gt;" style="text;html=1;align=center;verticalAlign=middle;resizable=0;points=[];autosize=1;strokeColor=none;fillColor=none;" vertex="1" parent="1">
          <mxGeometry x="897" y="2155" width="30" height="30" as="geometry" />
        </mxCell>
        <mxCell id="sEXIVBVAYyvHJAa7rBJ1-551" value="注：expand操作是复制操作，其反操作是累加" style="text;html=1;align=center;verticalAlign=middle;resizable=0;points=[];autosize=1;strokeColor=none;fillColor=none;" vertex="1" parent="1">
          <mxGeometry x="324" y="2060" width="270" height="30" as="geometry" />
        </mxCell>
        <mxCell id="sEXIVBVAYyvHJAa7rBJ1-552" value="注：expand操作是复制操作，其反操作是累加" style="text;html=1;align=center;verticalAlign=middle;resizable=0;points=[];autosize=1;strokeColor=none;fillColor=none;" vertex="1" parent="1">
          <mxGeometry x="867" y="2053" width="270" height="30" as="geometry" />
        </mxCell>
        <mxCell id="sEXIVBVAYyvHJAa7rBJ1-553" value="注：实线方块代表token，虚线方块代表该token的而expert id" style="text;html=1;align=center;verticalAlign=middle;resizable=0;points=[];autosize=1;strokeColor=none;fillColor=none;" vertex="1" parent="1">
          <mxGeometry x="369" y="270" width="340" height="30" as="geometry" />
        </mxCell>
        <mxCell id="sEXIVBVAYyvHJAa7rBJ1-554" value="&lt;font style=&quot;font-size: 20px; color: rgb(255, 51, 51);&quot;&gt;device 0:&lt;/font&gt;" style="text;html=1;align=center;verticalAlign=middle;resizable=0;points=[];autosize=1;strokeColor=none;fillColor=none;" vertex="1" parent="1">
          <mxGeometry x="239" y="20" width="100" height="40" as="geometry" />
        </mxCell>
        <mxCell id="sEXIVBVAYyvHJAa7rBJ1-555" value="&lt;font style=&quot;font-size: 20px; color: rgb(255, 51, 51);&quot;&gt;device 1:&lt;/font&gt;" style="text;html=1;align=center;verticalAlign=middle;resizable=0;points=[];autosize=1;strokeColor=none;fillColor=none;" vertex="1" parent="1">
          <mxGeometry x="802" y="20" width="100" height="40" as="geometry" />
        </mxCell>
      </root>
    </mxGraphModel>
  </diagram>
</mxfile>
